<svg width="357" height="322" viewBox="0 0 357 322" fill="none" xmlns="http://www.w3.org/2000/svg">
<path d="M0.89626 266.27C15.1531 257.106 31.3383 258.289 46.2926 262.841C62.1085 267.659 77.3295 276.054 93.289 279.956C102.13 282.113 111.156 282.882 120.059 280.872C120.449 280.783 120.285 279.926 119.895 280.015C103.361 283.71 86.8273 277.798 71.0114 271.354C55.8724 265.176 40.5488 258.318 24.6304 258.496C16.3839 258.584 8.15804 260.653 0.588558 265.501C0.219315 265.738 0.527017 266.506 0.89626 266.27Z" fill="#E8E8E8"/>
<path d="M63.2933 273.896C91.1381 274.458 118.096 266.743 145.32 262.161C153.272 260.831 161.282 259.767 169.352 259.235C169.913 259.205 169.913 258.318 169.352 258.348C141.477 260.181 114.608 268.516 86.9407 271.768C79.1075 272.684 71.2152 273.187 63.3228 273.039C62.7021 273.009 62.7021 273.896 63.2933 273.896Z" fill="#E8E8E8"/>
<path d="M193.444 263.964C203.346 261.836 213.603 261.481 223.624 263.018C232.846 264.437 241.685 267.482 250.405 270.733C259.006 273.926 267.549 277.325 276.476 279.601C285.698 281.936 295.069 282.527 304.587 282.527C315.819 282.527 327.14 282.084 338.166 284.567C338.728 284.685 338.964 283.828 338.402 283.71C318.923 279.335 298.734 283.769 279.254 279.335C261.075 275.197 244.463 265.885 226.077 262.545C215.2 260.565 204.026 260.801 193.237 263.107C192.646 263.225 192.882 264.082 193.444 263.964Z" fill="#E8E8E8"/>
<path d="M31.9925 150.309C29.4504 149.54 24.4549 147.442 26.3172 143.894C27.6473 141.352 31.6083 141.145 34.0617 141.234C42.3383 141.471 50.6149 142.18 58.8914 141.5C66.6655 140.85 74.0849 138.633 81.6521 136.859C89.3375 135.027 97.4663 133.696 105.211 135.943C108.61 136.918 111.773 138.544 115.113 139.667C116.709 140.2 118.365 140.613 120.05 140.791C122.06 140.998 124.07 140.702 126.05 140.613C128.09 140.525 130.188 140.584 131.932 141.796C133.529 142.889 134.859 144.959 133.824 146.88C132.346 149.658 128.031 148.89 125.548 148.358C118.187 146.821 110.768 146.348 103.289 147.353C99.3285 147.885 95.4562 148.86 91.6727 150.072C87.5935 151.373 83.6325 152.526 79.2873 151.935C75.2377 151.373 71.3654 150.072 67.2567 149.925C63.148 149.747 59.0688 150.279 55.0192 150.811C47.1564 151.875 38.7616 153.235 31.4014 149.422C30.8988 149.156 30.4555 149.924 30.958 150.191C37.8453 153.767 45.6193 152.94 53.0683 151.964C56.9701 151.432 60.9015 150.87 64.8624 150.782C69.2076 150.693 73.2573 151.698 77.4842 152.526C81.7999 153.353 85.7017 152.91 89.8991 151.609C94.067 150.309 98.1757 149.038 102.491 148.387C106.955 147.708 111.477 147.53 115.97 147.855C119.961 148.121 123.774 149.186 127.705 149.629C130.041 149.895 133.026 149.806 134.474 147.619C136.13 145.106 134.356 142.18 132.08 140.791C128.622 138.692 124.336 140.17 120.582 139.933C116.443 139.667 112.63 137.746 108.817 136.268C100.895 133.194 92.7959 133.578 84.608 135.322C75.9471 137.155 67.5228 139.963 58.655 140.672C53.5412 141.086 48.3684 140.998 43.2546 140.791C40.5943 140.672 37.9044 140.554 35.2441 140.436C33.5887 140.377 31.963 140.347 30.3372 140.672C27.8247 141.175 24.9574 142.653 25.1348 145.638C25.3417 148.919 29.1253 150.427 31.7856 151.225C32.2881 151.343 32.5246 150.486 31.9925 150.309Z" fill="#E8E8E8"/>
<path d="M250.139 41.2648C247.597 40.91 243.429 39.9937 242.69 37.0969C241.626 33.0768 247.361 31.8058 250.139 31.3033C258.268 29.914 266.604 31.1851 274.792 31.1851C291.02 31.1555 307.011 28.0813 323.151 26.9285C331.22 26.3373 339.349 26.2487 347.389 27.2832C349.222 27.5197 351.143 27.6971 352.917 28.2291C353.656 28.436 354.483 28.7908 355.045 29.3228C356.405 30.653 355.075 31.8649 353.833 32.5152C350.641 34.2001 347.005 34.88 343.428 35.0278C336.275 35.3529 329.151 33.8749 321.998 34.141C318.658 34.2592 315.377 34.8208 312.214 35.9736C308.519 37.3334 305.09 39.2547 301.365 40.5258C297.05 42.0037 292.498 42.7427 287.916 42.7427C283.275 42.7427 278.693 42.0333 274.112 41.5012C264.83 40.4371 255.519 40.4667 246.267 41.7081C245.705 41.7968 245.705 42.6836 246.267 42.5949C255.312 41.383 264.475 41.2943 273.55 42.3289C278.043 42.8314 282.536 43.5408 287.088 43.6295C291.286 43.7182 295.513 43.1861 299.562 42.0333C303.701 40.8509 307.484 38.8113 311.475 37.2151C315.347 35.6781 319.337 34.9982 323.476 34.9982C331.102 34.9391 338.758 36.6535 346.384 35.6485C348.246 35.412 350.05 34.9982 351.823 34.3479C353.183 33.8454 355.015 33.2246 355.991 32.0718C357.824 29.8549 355.163 27.904 353.183 27.3424C349.281 26.1895 344.877 25.9826 340.827 25.7462C336.423 25.4801 332.018 25.5097 327.614 25.7166C309.79 26.5738 292.172 30.2983 274.289 30.2392C269.205 30.2392 264.121 29.7662 259.037 29.7367C254.721 29.7071 249.785 29.7958 245.735 31.4806C243.193 32.5448 240.71 35.0278 242.129 37.9541C243.459 40.7031 247.213 41.649 249.932 42.0333C250.464 42.2106 250.701 41.3534 250.139 41.2648Z" fill="#E8E8E8"/>
<path d="M25.6555 81.6131C46.4267 70.9127 69.1904 80.9037 88.3427 91.6337C98.1057 97.1022 107.719 102.955 117.906 107.271C127.893 111.498 138.278 114.424 148.813 116.109C169.958 119.508 191.601 118.001 212.397 112.473C234.189 106.679 254.836 96.1563 276.454 89.5645C298.944 82.7068 322.454 81.2288 345.392 85.6332C348.182 86.1652 350.946 86.786 353.711 87.4954C354.184 87.6136 354.383 86.7564 353.91 86.6382C331.645 81.0219 308.507 80.7559 286.192 86.0174C263.877 91.279 242.881 102.039 220.989 109.044C199.745 115.843 177.554 118.592 155.612 116.138C144.704 114.926 133.895 112.414 123.435 108.512C112.626 104.492 102.489 98.6392 92.3027 92.8456C73.8975 82.3521 53.1263 71.7108 32.3053 77.9478C29.8895 78.6572 27.5733 79.6326 25.282 80.815C24.8586 81.081 25.2321 81.8496 25.6555 81.6131Z" fill="#E8E8E8"/>
<path d="M65.4249 71.0309C94.3042 87.1406 128.682 88.3526 160.724 83.8596C196.993 78.7754 231.932 66.8039 268.26 62.1335C288.479 59.5323 309.111 59.2072 329.123 63.641C329.685 63.7593 329.921 62.9021 329.359 62.7838C293.977 54.9802 257.678 61.8675 223.035 69.9372C188.894 77.8886 154.369 87.1702 118.986 84.8941C100.512 83.7118 82.1258 79.3075 65.8682 70.2623C65.3953 69.9667 64.9519 70.7353 65.4249 71.0309Z" fill="#E8E8E8"/>
<path d="M11.6117 15.8437C32.1545 9.93189 54.0669 12.2671 73.4358 22.465C82.9491 27.4605 91.8754 33.9636 101.217 39.3729C110.633 44.8118 120.464 48.5658 130.833 50.2507C142.694 52.1721 154.702 51.8469 166.588 50.901C167.052 50.8714 167.052 49.9847 166.588 50.0142C155.852 50.8714 145.018 51.2262 134.306 49.8664C123.448 48.4771 113.078 45.0483 103.174 39.5207C93.7585 34.2296 84.8566 27.7266 75.3922 22.5832C66.0991 17.4399 56.2434 14.0406 46.0943 12.5922C34.5267 10.9073 22.7391 11.735 11.4161 14.9865C10.9514 15.1048 11.1471 15.962 11.6117 15.8437Z" fill="#E8E8E8"/>
<path d="M231.045 195.002C228.443 194.47 224.187 193.14 223.98 189.918C223.862 187.938 225.517 186.489 227.261 185.957C229.36 185.277 231.577 185.898 233.616 186.489C237.341 187.583 241.095 188.47 244.997 188.617C248.632 188.765 252.239 188.233 255.756 187.287C259.54 186.282 263.235 184.923 266.989 183.858C270.95 182.735 274.999 182.144 279.138 182.085C287.03 181.967 294.834 183.385 302.696 183.711C306.628 183.858 310.5 183.651 314.372 183.06C318.57 182.41 322.856 181.435 327.142 181.937C330.216 182.292 335.152 184.361 334.147 188.322C333.261 191.78 328.354 193.731 325.339 194.707C310.204 199.613 294.597 191.455 279.256 193.613C270.418 194.854 262.082 198.579 253.155 199.288C249.076 199.613 244.878 199.347 241.006 197.899C237.459 196.539 234.267 193.583 230.217 194.293C229.655 194.381 229.892 195.239 230.453 195.15C232.877 194.736 235.006 195.889 237.045 197.012C238.701 197.899 240.356 198.727 242.159 199.259C245.854 200.382 249.815 200.53 253.658 200.175C262.111 199.377 270.063 196.037 278.428 194.677C287.651 193.199 296.725 195.327 305.83 196.539C313.249 197.515 321.2 197.751 328.176 194.648C330.837 193.465 334.384 191.573 335.064 188.44C335.684 185.632 333.527 183.385 331.191 182.233C327.733 180.548 323.565 180.873 319.9 181.375C315.436 181.967 311.091 182.913 306.569 182.972C297.76 183.119 289.069 181.316 280.29 181.287C276.093 181.287 271.925 181.76 267.846 182.824C263.796 183.888 259.865 185.366 255.845 186.46C250.879 187.79 245.883 188.204 240.799 187.406C238.257 186.992 235.863 186.282 233.409 185.573C231.577 185.041 229.596 184.597 227.675 185.011C224.808 185.632 222.206 188.351 223.478 191.396C224.63 194.175 228.148 195.387 230.867 195.948C231.34 195.978 231.577 195.12 231.045 195.002Z" fill="#E8E8E8"/>
<path d="M98.4111 311.732C109.466 309.071 120.285 305.436 130.719 300.913C136.129 298.548 141.42 295.858 147.184 294.44C152.711 293.05 158.446 292.636 164.151 292.784C170.743 292.932 177.275 293.819 183.778 294.853C184.34 294.942 184.576 294.085 184.015 293.996C172.93 292.252 161.52 290.833 150.376 292.843C144.642 293.878 139.38 296.065 134.119 298.46C128.591 300.972 123.004 303.248 117.27 305.258C111.003 307.446 104.648 309.337 98.1747 310.875C97.613 310.993 97.8495 311.85 98.4111 311.732Z" fill="#56597A"/>
<path d="M168.259 293.109C173.225 292.991 178.132 292.282 182.921 290.892C187.798 289.503 192.616 287.552 197.789 288.055C200.42 288.291 202.992 289.03 205.534 289.681C208.194 290.36 210.825 291.04 213.485 291.72C218.599 293.021 223.683 294.321 228.797 295.622C229.358 295.77 229.595 294.913 229.033 294.765C223.742 293.405 218.451 292.075 213.16 290.715C208.312 289.474 203.346 287.818 198.38 287.227C193.503 286.666 188.892 288.173 184.281 289.592C179.049 291.188 173.728 292.104 168.289 292.252C167.698 292.223 167.698 293.109 168.259 293.109Z" fill="#56597A"/>
<path d="M220.017 297.691C231.634 295.119 243.842 292.903 255.636 295.622C261.489 296.982 266.987 299.583 272.455 301.977C278.19 304.519 283.954 307.032 289.688 309.574C290.221 309.81 290.664 309.042 290.132 308.805C281.146 304.844 272.248 300.558 263.085 297.041C254.217 293.642 244.995 292.962 235.595 294.026C230.274 294.647 224.983 295.681 219.751 296.864C219.219 296.952 219.456 297.809 220.017 297.691Z" fill="#56597A"/>
<path d="M114.991 321.989C118.036 321.457 121.11 320.925 124.155 320.393C127.199 319.861 130.273 319.181 133.347 318.855C136.185 318.56 139.082 319.062 141.89 319.328C144.994 319.654 148.127 319.949 151.231 320.274C151.792 320.333 151.792 319.447 151.231 319.388C148.127 319.062 144.994 318.767 141.89 318.442C138.875 318.146 135.83 317.644 132.786 318.028C126.756 318.767 120.755 320.097 114.755 321.132C114.193 321.25 114.43 322.107 114.991 321.989Z" fill="#56597A"/>
<path d="M33.3548 188.677C35.3791 188.677 37.0201 187.036 37.0201 185.011C37.0201 182.987 35.3791 181.346 33.3548 181.346C31.3305 181.346 29.6895 182.987 29.6895 185.011C29.6895 187.036 31.3305 188.677 33.3548 188.677Z" fill="#F78BB6"/>
<path d="M43.2553 196.717C44.3165 196.717 45.1767 195.857 45.1767 194.795C45.1767 193.734 44.3165 192.874 43.2553 192.874C42.1942 192.874 41.334 193.734 41.334 194.795C41.334 195.857 42.1942 196.717 43.2553 196.717Z" fill="#F78BB6"/>
<path d="M249.403 9.04513C251.901 9.04513 253.926 7.02031 253.926 4.52256C253.926 2.02482 251.901 0 249.403 0C246.906 0 244.881 2.02482 244.881 4.52256C244.881 7.02031 246.906 9.04513 249.403 9.04513Z" fill="#F78BB6"/>
<path d="M259.925 14.1589C261.345 14.1589 262.497 13.0075 262.497 11.5872C262.497 10.1669 261.345 9.01556 259.925 9.01556C258.505 9.01556 257.354 10.1669 257.354 11.5872C257.354 13.0075 258.505 14.1589 259.925 14.1589Z" fill="#F78BB6"/>
<path d="M258.212 13.0948C260.579 13.0948 262.498 11.1758 262.498 8.80867C262.498 6.44153 260.579 4.52258 258.212 4.52258C255.845 4.52258 253.926 6.44153 253.926 8.80867C253.926 11.1758 255.845 13.0948 258.212 13.0948Z" fill="#56597A"/>
<path d="M247.956 233.666C251.155 233.666 253.749 231.072 253.749 227.872C253.749 224.673 251.155 222.079 247.956 222.079C244.756 222.079 242.162 224.673 242.162 227.872C242.162 231.072 244.756 233.666 247.956 233.666Z" fill="#56597A"/>
<path d="M37.6109 11.9124C39.6516 11.9124 41.3058 10.2581 41.3058 8.21749C41.3058 6.17685 39.6516 4.52258 37.6109 4.52258C35.5703 4.52258 33.916 6.17685 33.916 8.21749C33.916 10.2581 35.5703 11.9124 37.6109 11.9124Z" fill="#56597A"/>
<path d="M96.0792 264.585C98.5769 264.585 100.602 262.56 100.602 260.062C100.602 257.564 98.5769 255.54 96.0792 255.54C93.5815 255.54 91.5566 257.564 91.5566 260.062C91.5566 262.56 93.5815 264.585 96.0792 264.585Z" fill="#56597A"/>
<path d="M128.712 179.513C128.091 179.247 128.8 178.154 129.125 178.006C129.51 177.828 130.278 178.065 130.692 178.183C131.342 178.39 131.904 178.745 132.554 178.922C133.264 179.129 134.121 179.188 134.801 178.863C137.166 177.651 134.357 173.572 137.816 173.572C139.708 173.572 141.304 176.38 142.87 174.281C143.432 173.542 143.669 172.596 143.964 171.71C144.201 170.941 144.408 170.143 144.94 169.522C145.56 168.813 147.452 168.103 147.659 169.64C147.718 170.202 148.635 170.202 148.546 169.64C148.398 168.576 147.63 167.867 146.536 167.808C145.235 167.719 144.289 168.695 143.757 169.759C143.373 170.498 143.196 171.325 142.93 172.123C142.752 172.685 142.516 173.661 142.013 174.015C141.481 174.37 141.067 173.986 140.624 173.72C139.471 172.951 138.082 172.36 136.693 172.862C135.422 173.335 134.919 174.429 134.978 175.73C134.978 176.114 135.096 176.587 135.067 176.971C134.86 178.331 133.944 178.39 132.998 178.183C132.052 177.976 131.254 177.385 130.278 177.208C129.244 177.001 128.209 177.267 127.736 178.301C127.352 179.188 127.588 180.075 128.475 180.43C129.007 180.577 129.244 179.72 128.712 179.513Z" fill="#56597A"/>
<path d="M143.965 180.932C143.522 180.252 143.522 179.395 143.995 178.715C144.674 177.74 145.62 177.888 146.655 178.035C147.423 178.154 148.369 178.301 148.931 177.622C149.315 177.178 149.256 176.646 149.404 176.144C149.611 175.405 150.084 174.754 150.705 174.311C152.005 173.365 153.838 173.217 155.138 174.222C155.464 174.459 155.848 174.311 155.907 173.897C156.262 171.03 159.099 168.902 161.937 169.404C162.499 169.493 162.735 168.636 162.174 168.547C158.715 167.956 155.434 170.439 155.02 173.897C155.286 173.779 155.523 173.69 155.789 173.572C154.577 172.626 153.04 172.39 151.591 172.892C149.936 173.454 149.167 174.547 148.547 176.084C148.251 176.853 147.896 177.326 147.039 177.208C146.566 177.149 146.123 177.03 145.65 177.001C144.97 176.971 144.379 177.149 143.847 177.592C142.724 178.538 142.428 180.164 143.226 181.405C143.522 181.878 144.29 181.435 143.965 180.932Z" fill="#56597A"/>
<path d="M158.921 19.1544C158.419 18.6815 158.567 18.3859 159.335 18.2381C159.66 17.7947 160.015 17.706 160.399 18.0016C160.931 18.1198 161.286 18.5928 161.67 18.9475C162.143 19.3613 162.557 19.8343 163.089 20.1594C163.828 20.5733 164.745 20.7506 165.513 20.3663C166.459 19.8934 166.489 18.9475 166.814 18.0607C167.701 15.696 170.716 15.4595 172.134 17.4695C172.312 17.706 172.755 17.7947 172.903 17.4695C173.465 16.1394 174.174 14.6319 175.445 13.8338C176.716 13.0357 178.844 13.1243 179.406 14.7796C179.583 15.3117 180.441 15.0752 180.263 14.5432C179.702 12.947 178.076 12.2376 176.45 12.5036C174.204 12.8879 172.962 15.1344 172.134 17.0262C172.4 17.0262 172.637 17.0262 172.903 17.0262C171.868 15.5482 170.095 14.7501 168.321 15.4004C167.582 15.6664 166.902 16.1985 166.459 16.8784C166.223 17.2331 166.075 17.6173 165.927 18.0312C165.838 18.2972 165.838 18.6224 165.69 18.8588C165.306 19.5091 164.242 19.7752 163.562 19.3909C162.114 18.5928 160.695 16.0507 158.685 17.0853C157.562 17.6469 157.414 19.2431 158.478 19.923C158.981 20.2185 159.424 19.45 158.921 19.1544Z" fill="#F78BB6"/>
<path d="M177.898 18.918C177.691 15.962 181.474 16.9375 182.982 17.6765C183.75 18.0607 184.696 18.7702 185.524 18.1199C185.79 17.9129 185.908 17.6174 186.026 17.3218C186.47 16.3463 186.765 15.6369 187.948 15.2822C189.78 14.7501 191.554 15.9029 193.032 16.8488C193.505 17.1444 193.948 16.3759 193.475 16.0803C191.909 15.1048 190.135 14.0111 188.214 14.3363C187.593 14.425 186.972 14.6614 186.47 15.0457C185.701 15.6073 185.553 16.5828 184.785 17.0557C184.046 17.4991 183.75 17.0557 183.011 16.701C182.627 16.5237 182.243 16.3463 181.829 16.1985C181.06 15.9325 180.233 15.8142 179.435 15.9916C178.045 16.3167 176.922 17.44 177.011 18.918C177.04 19.4796 177.927 19.4796 177.898 18.918Z" fill="#F78BB6"/>
<path d="M263.443 141.352C261.492 137.066 268.882 135.174 269.385 139.667C269.562 141.175 268.734 142.771 267.197 143.185C265.483 143.628 263.65 142.476 263.177 140.82C263.029 140.259 262.172 140.495 262.32 141.057C262.911 143.185 265.246 144.604 267.434 144.042C269.591 143.481 270.656 141.086 270.153 139.017C269.621 136.83 267.345 135.766 265.246 136.327C262.793 136.978 261.64 139.549 262.675 141.855C262.911 142.328 263.68 141.855 263.443 141.352Z" fill="#F78BB6"/>
<path d="M268.942 144.752C267.345 144.604 266.754 142.476 267.848 141.411C268.764 140.495 270.331 140.554 271.306 141.323C272.311 142.121 273.287 144.456 272.164 145.579C270.686 147.057 268.882 144.663 268.173 143.599C267.848 143.126 267.079 143.569 267.405 144.042C268.439 145.638 270.804 148.151 272.784 146.2C274.351 144.663 273.228 141.559 271.691 140.466C270.124 139.342 267.552 139.727 266.666 141.559C265.779 143.333 267.079 145.461 268.971 145.638C269.503 145.698 269.503 144.811 268.942 144.752Z" fill="#F78BB6"/>
<path d="M0.424988 107.596C1.60736 107.537 2.2281 106.738 3.05576 105.999C5.00667 104.255 7.25317 105.911 8.49466 107.625C9.67703 109.251 11.3915 110.404 12.899 108.453C13.6084 107.537 13.9631 106.177 14.9386 105.526C16.919 104.196 18.6039 106.827 19.8454 107.98C21.2643 109.281 24.1906 109.872 24.8409 107.448C24.9887 106.886 24.1315 106.65 23.9837 107.211C23.6586 108.482 22.1215 108.453 21.2051 107.921C20.4957 107.507 19.9932 106.857 19.4316 106.295C18.6039 105.408 17.6876 104.551 16.4461 104.315C14.4065 103.96 13.4902 105.793 12.5738 107.27C12.3374 107.684 12.0418 108.246 11.5984 108.482C10.5343 109.044 9.76571 107.921 9.20408 107.182C8.49466 106.177 7.69656 105.32 6.54375 104.788C5.59785 104.344 4.47461 104.196 3.49915 104.61C2.3759 105.083 1.66648 106.679 0.395431 106.738C-0.136635 106.738 -0.136638 107.625 0.424988 107.596Z" fill="#F78BB6"/>
<path d="M21.0867 101.506C22.3281 102.984 24.5451 104.965 26.496 103.339C26.9689 102.925 27.235 102.334 27.7375 101.92C28.4765 101.359 29.4519 101.24 30.3091 101.506C32.1714 102.009 33.2651 103.782 34.2405 105.29C34.4179 105.556 34.8613 105.615 35.0091 105.29C36.2801 102.511 39.6794 101.832 42.3398 102.896C42.8718 103.103 43.1083 102.245 42.5762 102.038C39.5907 100.827 35.6594 101.713 34.2405 104.817C34.5066 104.817 34.743 104.817 35.0091 104.817C33.6789 102.748 31.994 100.383 29.2154 100.472C28.24 100.501 27.3532 100.915 26.7029 101.625C25.9344 102.511 25.2841 103.221 24.013 102.837C23.0376 102.541 22.3281 101.625 21.6778 100.856C21.3527 100.442 20.7319 101.063 21.0867 101.506Z" fill="#F78BB6"/>
<path d="M74.3242 132.425C73.9399 131.657 73.4965 130.859 73.1418 130.061C72.7575 129.233 72.9349 128.908 73.4374 128.198C74.0877 127.282 75.0927 126.454 76.2455 127.075C77.0732 127.519 77.6052 128.524 77.8417 129.381C78.2555 130.829 77.9008 132.898 76.216 133.371C74.8267 133.756 73.0236 132.898 73.0827 131.302C73.0827 130.741 72.1959 130.741 72.1959 131.302C72.1368 133.283 74.1173 134.524 75.9499 134.317C78.1964 134.051 79.1423 131.686 78.8172 129.676C78.492 127.726 76.6889 125.243 74.4424 126.159C73.3487 126.602 72.5211 127.755 72.0186 128.79C71.723 129.41 71.7821 129.44 72.0777 130.061C72.5506 131.007 73.0236 131.952 73.4965 132.869C73.8217 133.371 74.5902 132.928 74.3242 132.425Z" fill="#56597A"/>
<path d="M77.6026 138.219C76.4794 136.889 74.558 134.288 76.2133 132.632C77.3957 131.45 79.524 131.893 80.4994 133.076C81.5044 134.288 81.7114 136.652 80.1447 137.539C78.8146 138.308 76.8932 137.569 76.6567 136.032C76.568 135.47 75.7108 135.707 75.7995 136.268C76.1542 138.278 78.6076 139.224 80.3812 138.426C82.539 137.421 82.6277 134.435 81.3566 132.692C80.1447 131.007 77.4844 130.415 75.8291 131.805C73.4348 133.785 75.5039 137.037 77.0114 138.81C77.3366 139.283 77.9573 138.662 77.6026 138.219Z" fill="#F78BB6"/>
<path d="M252.388 78.3911C252.417 75.7899 255.994 76.5584 257.531 76.7358C258.861 76.8836 260.073 76.7062 261.255 76.0559C262.556 75.376 263.62 74.3119 264.891 73.5729C265.719 73.0704 266.724 72.627 267.699 72.627C268.734 72.6566 269.384 73.2773 270.3 73.6616C272.429 74.5188 273.788 72.5384 275.119 71.2378C277.749 68.6661 281.503 69.7302 284.578 70.7944C285.11 70.9717 285.346 70.1145 284.814 69.9371C282.065 68.9913 278.577 67.9567 275.858 69.5233C274.557 70.2623 273.788 71.622 272.606 72.4792C270.921 73.6912 269.502 71.7698 267.729 71.7403C263.916 71.6811 261.906 76.0855 258.063 75.8786C256.408 75.7899 254.811 75.1691 253.215 75.9081C252.181 76.3811 251.53 77.2087 251.501 78.3615C251.471 78.9527 252.358 78.9527 252.388 78.3911Z" fill="#56597A"/>
<path d="M274.498 77.3861C276.39 74.6962 279.937 73.3956 283.129 74.3119C284.519 74.7258 285.819 75.849 287.356 75.7603C288.627 75.6717 289.307 74.6371 290.165 73.839C291.554 72.5679 293.357 71.5334 295.308 71.5925C296.49 71.622 297.407 72.0654 298.323 72.834C298.619 73.1 298.855 73.3365 299.269 73.4547C299.86 73.6025 300.392 73.3365 300.924 73.1C301.84 72.6862 302.786 72.3315 303.762 72.0654C305.772 71.5629 307.811 71.4742 309.851 71.7403C310.413 71.7994 310.413 70.9126 309.851 70.8535C307.9 70.5875 305.949 70.6466 304.028 71.09C303.171 71.2969 302.313 71.5629 301.486 71.8881C300.835 72.1541 300.51 72.3315 299.771 72.3315C298.973 72.3315 299.032 72.2132 298.5 71.7994C295.988 69.878 292.618 70.7648 290.342 72.5679C289.721 73.0409 289.219 73.6912 288.627 74.1641C287.209 75.2874 286.085 74.578 284.637 73.9277C283.395 73.366 282.095 73.1 280.735 73.1591C277.927 73.2774 275.385 74.6666 273.789 76.9427C273.404 77.4156 274.173 77.859 274.498 77.3861Z" fill="#56597A"/>
<path d="M210.207 275.64C210.769 279.187 211.331 282.764 211.863 286.311C200.187 290.094 194.452 292.489 194.689 293.494C194.984 294.735 204.325 293.819 222.711 290.833C221.647 285.217 220.612 279.601 219.548 273.985C216.415 274.517 213.311 275.078 210.207 275.64Z" fill="#56597A"/>
<path d="M185.084 156.871C184.877 160.891 184.582 166.625 184.316 173.572C184.05 180.932 183.902 184.775 183.931 189.504C183.931 191.544 184.02 199.85 185.084 210.55C185.971 219.566 187.36 233.045 192.297 249.628C194.248 256.19 197.263 264.999 201.963 275.049C204.12 275.374 206.663 275.551 209.559 275.433C214.998 275.167 219.403 273.837 222.447 272.595C221.56 269.699 220.319 265.59 219.018 260.653C217.274 253.973 212.249 233.843 210.298 206.796C209.323 193.199 208.968 176.232 210.683 156.723C202.17 156.753 193.627 156.812 185.084 156.871Z" fill="white"/>
<path opacity="0.09" d="M209.943 159.147C209.381 161.275 208.642 164.349 207.844 168.074C205.775 177.917 203.647 191.958 203.854 215.694C203.972 230.296 205.007 250.485 208.79 274.871C210.268 274.724 211.776 274.546 213.342 274.31C216.623 273.807 219.668 273.157 222.447 272.418C221.205 268.398 219.491 262.427 217.717 255.155C211.421 229.232 209.647 207.24 209.174 192.726C208.908 184.095 208.908 172.656 209.943 159.147Z" fill="#606060"/>
<path d="M210.029 157.639C207.073 187.553 208.906 217.911 215.439 247.263C217.301 255.599 219.518 263.816 222.119 271.945C222.296 272.477 223.154 272.241 222.976 271.709C213.872 243.125 209.32 213.152 209.556 183.149C209.615 174.636 210.088 166.093 210.916 157.61C210.975 157.078 210.088 157.078 210.029 157.639Z" fill="#56597A"/>
<path d="M183.87 184.154C182.776 208.393 186.176 232.779 193.802 255.806C195.93 262.25 198.413 268.575 201.221 274.753C201.458 275.285 202.226 274.812 201.99 274.31C192.088 252.288 186.264 228.493 184.875 204.402C184.491 197.663 184.461 190.923 184.757 184.154C184.786 183.563 183.9 183.592 183.87 184.154Z" fill="#56597A"/>
<path d="M201.576 275.019C202.581 276.142 204.886 275.876 206.246 275.906C208.315 275.936 210.414 275.729 212.453 275.433C214.67 275.108 216.887 274.635 219.075 274.103C220.168 273.837 222.444 273.778 223.006 272.566C223.243 272.063 222.474 271.59 222.238 272.122C221.972 272.743 220.494 272.861 219.932 272.98C219.104 273.187 218.306 273.364 217.479 273.571C215.912 273.926 214.375 274.251 212.808 274.487C211.182 274.753 209.557 274.931 207.931 274.99C206.689 275.049 203.142 275.433 202.226 274.398C201.812 273.955 201.191 274.605 201.576 275.019Z" fill="#56597A"/>
<path d="M176.364 156.694C175.507 158.556 174.354 162.103 173.526 165.236C172.492 169.227 172.226 171.621 171.634 175.109C170.541 181.553 169.802 182.647 168.206 189.711C166.521 197.278 165.752 203.102 165.161 207.742C164.688 211.349 163.831 218.709 163.447 228.227C163.269 232.336 163.18 234.76 163.269 238.1C163.506 248.593 165.191 256.722 165.929 259.914C167.91 268.694 170.807 276.202 173.704 282.291C175.034 282.971 177.044 283.828 179.586 284.389C182.719 285.069 186.739 285.956 190.582 284.005C191.646 283.473 194.07 281.995 195.903 278.507C194.484 274.635 192.74 269.137 191.35 262.397C187.922 245.667 189.163 232.424 190.02 224.089C191.616 208.334 195.282 196.51 201.578 176.114C203.706 169.256 205.598 163.699 206.899 160.004C207.342 157.078 208.377 148.299 203.677 144.633C196.789 139.194 180.739 147.264 176.364 156.694Z" fill="white"/>
<path opacity="0.08" d="M202.732 172.419C200.811 175.464 198.151 179.986 195.52 185.691C192.268 192.726 187.48 205.082 184.908 229.705C183.489 243.154 182.543 261.984 184.731 284.715C185.647 284.803 189.549 285.128 192.889 282.439C194.604 281.049 195.49 279.453 195.934 278.448C194.485 274.458 192.623 268.605 191.204 261.363C187.007 240.258 189.638 223.291 191.589 211.467C193.185 201.594 196.289 187.967 202.732 172.419Z" fill="#606060"/>
<path d="M181.005 284.33C182.01 287.937 183.015 291.572 184.021 295.179C168.177 299.997 160.403 303.012 160.669 304.194C160.964 305.554 171.753 304.549 193.036 301.179C192.474 295.386 191.913 289.621 191.381 283.828C187.893 283.976 184.434 284.153 181.005 284.33Z" fill="#56597A"/>
<path d="M176.038 157.048C172.905 164.97 171.309 173.365 169.624 181.701C167.85 190.421 166.136 199.141 164.894 207.949C162.589 224.266 161.879 240.967 165.042 257.225C166.727 265.974 169.565 274.487 173.732 282.35C173.999 282.852 174.767 282.409 174.501 281.907C158.687 251.845 163.475 216.669 169.919 184.775C171.782 175.523 173.437 166.093 176.925 157.285C177.102 156.753 176.245 156.516 176.038 157.048Z" fill="#56597A"/>
<path d="M202.349 172.36C192.447 198.756 185.826 227.133 189.668 255.421C190.732 263.225 192.595 270.881 195.314 278.271C195.521 278.803 196.378 278.566 196.171 278.034C186.328 251.46 188.338 222.315 195.728 195.387C197.856 187.672 200.398 180.075 203.206 172.567C203.413 172.035 202.556 171.828 202.349 172.36Z" fill="#56597A"/>
<path d="M173.824 282.32C177.992 284.626 182.78 285.601 187.51 284.981C191.382 284.449 195.875 282.675 196.259 278.212C196.318 277.65 195.431 277.65 195.372 278.212C194.959 282.852 189.342 284.094 185.529 284.271C181.598 284.449 177.726 283.473 174.297 281.552C173.765 281.286 173.321 282.054 173.824 282.32Z" fill="#56597A"/>
<path d="M182.452 79.6621C181.654 80.608 180.531 82.0564 179.467 83.9778C175.831 90.3626 175.594 96.6291 175.535 102.127C175.476 110.138 175.417 114.158 176.274 122.878C177.072 131.036 177.279 142.742 174.412 157.669C176.984 159.561 180.738 161.748 185.645 162.901C199.774 166.212 211.479 157.965 213.696 156.368C210.888 139.904 209.351 126.72 208.464 117.468C207.903 111.616 205.834 103.103 201.725 86.0469C200.483 80.8445 199.212 75.8785 195.37 74.4597C190.049 72.4497 183.516 78.6276 182.452 79.6621Z" fill="#F78BB6"/>
<path opacity="0.1" d="M195.223 74.8735C195.696 76.7949 196.375 79.6917 197.055 83.2684C197.942 87.8796 199.124 94.8556 199.952 105.231C200.809 115.931 201.785 136.002 202.08 161.955C204.09 161.364 206.514 160.477 209.086 159.058C210.8 158.112 212.278 157.107 213.52 156.161C213.313 153.885 212.929 150.427 212.308 146.259C211.51 141.027 210.712 137.391 210.327 135.588C209.382 130.918 208.317 123.942 208.199 114.246C206.987 109.103 206.071 104.965 205.45 102.216C203.736 94.4122 203.233 91.545 201.933 86.8155C200.632 82.0564 199.272 78.2729 198.415 75.9968C197.351 75.583 196.287 75.2282 195.223 74.8735Z" fill="#606060"/>
<path d="M182.422 82.4998C182.688 83.0318 183.131 83.2092 184.107 83.6821C184.934 84.096 185.732 84.5985 186.56 84.9532C189.102 86.0469 192.088 90.8946 192.56 91.6631C194.364 94.5895 196.462 98.0184 197.674 102.984C197.999 104.285 198.738 107.655 197.881 119.035C196.965 130.711 195.782 132.337 196.699 138.16C197.379 142.387 198.236 147.441 202.404 150.19C206.276 152.733 210.739 151.846 211.656 151.668C217.272 150.575 220.464 146.229 223.568 142.003C228.298 135.588 230.101 129.174 230.869 125.449C231.224 123.705 231.165 118.592 231.076 108.394C230.958 97.8706 230.781 94.2348 228.032 91.1606C226.169 89.0915 223.893 88.116 222.327 87.6135C222.445 86.9632 222.474 85.9878 221.942 85.1601C220.937 83.623 218.543 83.6526 217.006 83.6821C210.414 83.8595 205.507 88.2934 205.271 88.5003C201.162 92.3134 199.95 96.9838 199.566 98.9347C198.738 95.2694 197.379 92.4612 196.315 90.6581C195.398 89.0915 194.038 87.4953 191.289 84.2438C189.132 81.7017 188.097 80.7262 186.471 80.1941C186.117 80.0759 183.427 79.2778 182.54 80.4897C182.126 81.0514 182.126 81.9086 182.422 82.4998Z" fill="white"/>
<path opacity="0.11" d="M182.217 81.4061C182.395 81.081 184.375 81.82 184.582 81.9086C187.508 83.0319 190.11 85.3671 193.45 90.7764C195.164 93.555 197.322 97.4864 199.155 102.6C200.455 101.27 201.549 100.176 202.406 99.3486C202.406 99.3486 205.569 96.304 210.683 93.3481C211.185 93.0525 211.806 92.6978 212.249 92.9638C213.166 93.4663 212.19 95.9197 212.456 98.1958C212.663 99.9102 213.668 102.275 217.481 104.906C217.57 105.408 217.6 106.118 217.186 106.591C216.358 107.507 214.23 106.768 213.136 106.384C211.363 105.763 207.934 104.137 203.884 99.3782C203.5 100.915 202.997 103.103 202.613 105.793C202.258 108.128 201.283 115.902 202.909 125.893C203.559 129.854 204.771 135.145 207.254 141.175C208.348 141.648 209.737 142.091 211.392 142.357C214.851 142.889 217.718 142.209 219.373 141.677C218.398 142.15 217.068 142.948 215.915 144.338C214.526 146.023 214.496 147.294 213.343 148.86C212.575 149.924 211.185 151.255 208.614 152.201C207.816 152.112 206.604 151.905 205.273 151.314C201.224 149.511 199.391 145.697 198.564 143.924C197.47 141.53 195.785 136.682 197.381 120.277C198.298 110.906 199.303 107.98 197.765 102.63C196.583 98.5209 194.543 95.1216 193.834 93.9688C192.563 91.8997 190.287 88.2048 186.149 84.8054C184.198 83.1501 182.04 81.7904 182.217 81.4061Z" fill="#606060"/>
<path d="M215.176 88.0273C214.644 88.7367 213.964 89.7713 213.432 91.131C213.136 91.9291 212.427 93.7914 212.604 96.1561C212.929 100.856 216.299 103.723 216.92 104.226C217.334 104.551 217.688 104.817 217.925 104.965C217.57 106.177 217.156 107.98 217.009 110.197C216.772 113.33 216.536 116.848 218.368 117.882C219.551 118.532 221.324 118.089 222.3 117.143C222.536 116.907 223.216 116.168 223.393 112.828C223.6 108.867 222.773 107.211 223.955 106.058C224.458 105.526 225.315 105.201 226.054 104.876C226.881 104.521 227.62 104.344 228.152 104.226C227.827 106.65 227.591 108.807 227.413 110.551C227.207 112.709 227.118 113.803 227.857 114.483C228.537 115.104 229.66 115.222 230.517 114.838C231.64 114.335 231.995 112.946 232.616 110.167C233.118 107.98 233.532 106.147 233.266 103.664C233.118 102.393 232.852 101.359 232.616 100.649C232.557 100.147 232.409 99.4076 232.172 98.5504C231.67 96.836 231.197 96.3335 230.901 95.2398C230.458 93.6732 230.961 92.9046 231.079 91.131C231.197 89.7418 231.079 87.7613 230.074 85.2783C229.689 85.3079 228.891 85.367 228.064 85.9286C227.059 86.5789 226.645 87.5248 226.497 87.85C225.729 87.6726 224.339 87.4953 222.743 87.9387C219.994 88.6776 218.546 90.7172 218.161 91.338C218.93 89.6531 218.28 87.9978 217.245 87.5839C216.358 87.1997 215.294 87.9682 215.176 88.0273Z" fill="#56597A"/>
<path d="M218.517 97.1907C218.813 96.6291 220.291 95.3876 220.793 96.4222C221.03 96.9247 221.798 96.4813 221.562 95.9788C221.236 95.299 220.438 95.092 219.729 95.2398C218.872 95.3876 218.162 95.9788 217.749 96.7474C217.482 97.2499 218.251 97.6933 218.517 97.1907Z" fill="white"/>
<path d="M227.176 94.9147C227.354 94.5304 227.531 94.087 227.827 93.7914C228.122 93.4958 229.009 93.1707 229.039 93.8505C229.068 94.4122 229.955 94.4122 229.925 93.8505C229.866 92.9933 229.127 92.4317 228.27 92.5499C227.295 92.7273 226.792 93.6141 226.408 94.4417C226.171 94.9738 226.94 95.4467 227.176 94.9147Z" fill="white"/>
<path d="M227.414 97.7228C227.414 97.7523 227.414 97.7819 227.414 97.8114C227.355 97.8706 227.296 97.9297 227.266 97.9592C227.118 98.0479 226.882 97.9592 226.911 97.7819C226.911 97.7819 226.911 97.6932 226.941 97.7228L226.852 97.8114C227.059 97.8114 227.266 97.8114 227.473 97.8114C227.443 97.7819 227.443 97.7819 227.414 97.7523C227.443 97.7819 227.443 97.7819 227.443 97.7819C227.414 97.7523 227.443 97.7523 227.443 97.8114C227.473 97.9888 227.384 98.107 227.148 98.1957C227.059 98.1662 227 98.1662 226.911 98.1366C226.793 98.0775 226.823 97.9001 226.852 97.8114C226.882 97.7819 226.852 97.7819 226.823 97.841C226.852 97.8114 226.852 97.8114 226.823 97.841C226.616 97.9888 226.527 98.2253 226.675 98.4617C226.793 98.6391 227.089 98.7573 227.296 98.6095C227.502 98.4617 227.709 98.2548 227.739 97.9592C227.739 97.6341 227.502 97.3385 227.177 97.3385C226.852 97.3385 226.616 97.5454 226.586 97.8706C226.557 98.107 226.704 98.314 226.852 98.4617C227.03 98.6391 227.296 98.6095 227.473 98.4617C227.857 98.1662 227.946 97.5454 227.502 97.2498C227.296 97.1316 227.03 97.102 226.823 97.2203C226.557 97.3681 226.527 97.7228 226.586 97.9888C226.616 98.2253 226.911 98.3435 227.118 98.2844C227.355 98.1957 227.443 97.9592 227.414 97.7228Z" fill="white"/>
<path d="M222.682 98.6392C221.825 99.1417 220.672 98.9052 220.111 98.0775C219.786 97.6046 219.017 98.048 219.342 98.5209C220.199 99.7328 221.825 100.147 223.155 99.4077C223.628 99.1121 223.185 98.3436 222.682 98.6392Z" fill="white"/>
<path d="M222.032 100.56C221.382 101.063 220.82 101.713 220.436 102.452C220.17 102.955 220.939 103.398 221.205 102.896C221.559 102.216 222.062 101.654 222.683 101.181C222.86 101.033 222.83 100.708 222.683 100.56C222.476 100.383 222.21 100.413 222.032 100.56Z" fill="white"/>
<path d="M229.217 97.309C229.808 96.6291 230.251 95.8606 230.547 95.0034C230.724 94.4713 229.867 94.2348 229.69 94.7669C229.453 95.4763 229.069 96.1266 228.596 96.6882C228.241 97.1316 228.862 97.7524 229.217 97.309Z" fill="white"/>
<path d="M229.275 98.4322C229.985 98.2844 230.812 98.1071 231.374 98.6983C231.758 99.1121 232.379 98.4914 231.995 98.0775C231.196 97.2203 230.044 97.3681 229.009 97.6046C228.477 97.6933 228.713 98.5505 229.275 98.4322Z" fill="white"/>
<path d="M182.067 81.82C183.427 79.6917 186.649 80.9628 188.275 82.0269C190.226 83.2684 191.704 85.1306 193.034 86.9928C195.724 90.7469 198.118 94.826 199.005 99.4077C199.123 99.9694 199.98 99.7329 199.862 99.1713C198.828 93.7028 195.635 88.4412 192.029 84.2438C189.93 81.82 183.989 77.2383 181.299 81.4061C181.003 81.8495 181.772 82.3225 182.067 81.82Z" fill="#56597A"/>
<path d="M183.901 83.83C190.995 87.8205 194.985 95.2989 196.995 102.925C197.143 103.487 198 103.25 197.853 102.689C195.784 94.8556 191.616 87.1406 184.344 83.0614C183.842 82.7658 183.398 83.5344 183.901 83.83Z" fill="#56597A"/>
<path d="M199.864 99.0234C200.603 93.7914 203.943 89.4166 208.525 86.9041C210.89 85.6035 213.521 84.8054 216.21 84.4211C217.482 84.2438 218.96 84.0664 220.201 84.5394C221.561 85.0419 222.861 87.1997 221.147 88.1751C220.644 88.4412 221.088 89.2097 221.59 88.9437C223.482 87.8796 223.009 85.1601 221.354 84.1255C218.782 82.4998 214.526 83.6526 211.895 84.5394C205.392 86.6381 200.012 91.8996 199.037 98.846C198.918 99.3485 199.776 99.585 199.864 99.0234Z" fill="#56597A"/>
<path d="M201.845 100.354C203.294 98.6687 205.126 97.2499 206.9 95.9197C208.614 94.6191 210.447 93.555 212.575 93.082C213.137 92.9638 212.9 92.1066 212.339 92.2248C210.151 92.7273 208.23 93.821 206.456 95.1512C204.624 96.5404 202.732 97.9888 201.224 99.7328C200.84 100.147 201.461 100.797 201.845 100.354Z" fill="#56597A"/>
<path d="M212.692 93.1706C213.313 91.7518 214.111 90.392 215.086 89.1801C215.264 88.9732 215.471 88.6185 215.707 88.4707C215.914 88.0864 216.18 88.0569 216.564 88.4116C217.037 88.4116 217.244 88.5889 217.244 89.0028C217.569 89.6235 217.599 90.6876 217.717 91.3971C217.835 91.9587 218.693 91.7222 218.574 91.1606C218.338 90.0373 218.042 86.0173 215.914 87.111C215.086 87.5248 214.466 88.5594 213.934 89.2688C213.135 90.3625 212.485 91.5153 211.924 92.7272C211.687 93.2297 212.456 93.7027 212.692 93.1706Z" fill="#56597A"/>
<path d="M218.398 91.6631C219.905 89.7122 222.98 87.0223 225.61 88.4707C226.113 88.7367 226.556 87.9682 226.054 87.7022C223.009 86.0764 219.58 88.7367 217.748 91.0424C217.422 91.4858 218.043 92.1065 218.398 91.6631Z" fill="#56597A"/>
<path d="M226.468 88.3229C226.882 87.6726 228.803 85.3374 229.631 85.9582C230.074 86.2833 230.163 87.4362 230.281 87.9682C230.459 88.7959 230.518 89.6235 230.547 90.4808C230.577 91.0424 231.464 91.0424 231.434 90.4808C231.404 89.2984 231.257 88.1456 230.961 86.9928C230.784 86.3425 230.636 85.101 229.867 84.8941C229.158 84.7167 228.183 85.3966 227.65 85.7808C226.852 86.3425 226.232 87.0519 225.729 87.8795C225.404 88.3525 226.172 88.7959 226.468 88.3229Z" fill="#56597A"/>
<path d="M202.996 98.9052C205.036 100.886 207.194 102.718 209.499 104.374C211.775 105.999 213.992 107.152 216.86 107.004C217.421 106.975 217.421 106.088 216.86 106.118C213.933 106.265 211.775 104.965 209.499 103.309C207.401 101.772 205.45 100.088 203.587 98.2844C203.203 97.9002 202.582 98.5209 202.996 98.9052Z" fill="#56597A"/>
<path d="M197.026 101.95C200.248 116.256 191.853 131.893 198.799 145.579C200.1 148.151 202.081 150.486 204.8 151.639C207.46 152.762 210.534 152.673 213.283 151.787C219.373 149.836 223.304 144.19 226.319 138.869C228.24 135.529 229.837 131.952 230.783 128.198C231.256 126.336 231.551 124.385 231.64 122.464C231.728 120.247 231.433 118.03 231.522 115.813C231.551 115.251 230.664 115.251 230.635 115.813C230.517 119.419 230.989 122.848 230.28 126.425C229.659 129.617 228.507 132.721 227.058 135.618C224.368 141.057 220.732 147.175 215.146 150.043C212.249 151.521 208.672 152.082 205.569 150.929C202.524 149.806 200.514 147.116 199.213 144.249C196.435 138.012 196.76 130.918 197.499 124.296C198.327 116.788 199.627 109.192 197.942 101.684C197.735 101.181 196.878 101.388 197.026 101.95Z" fill="#56597A"/>
<path d="M210.18 131.539C208.524 134.435 207.431 137.569 206.958 140.879C206.869 141.441 207.726 141.677 207.815 141.116C208.288 137.864 209.322 134.82 210.948 131.982C211.244 131.509 210.475 131.066 210.18 131.539Z" fill="#56597A"/>
<path d="M210.742 131.864C215.116 131.479 219.728 130.652 224.102 131.125C224.664 131.184 224.664 130.297 224.102 130.238C219.728 129.735 215.116 130.593 210.742 130.977C210.18 131.036 210.18 131.923 210.742 131.864Z" fill="#56597A"/>
<path d="M207.401 141.677C209.559 142.948 212.072 142.83 214.496 142.771C217.038 142.682 219.58 142.387 221.797 141.057C222.299 140.761 221.826 139.992 221.353 140.288C219.255 141.559 216.89 141.796 214.496 141.884C212.249 141.973 209.884 142.121 207.845 140.938C207.372 140.643 206.928 141.411 207.401 141.677Z" fill="#56597A"/>
<path d="M223.686 130.918C223.124 134.169 222.267 137.303 221.114 140.377C220.907 140.909 221.764 141.145 221.971 140.613C223.154 137.539 224.011 134.376 224.543 131.154C224.632 130.593 223.774 130.356 223.686 130.918Z" fill="#56597A"/>
<path d="M209.945 133.076C211.393 136.268 215.502 137.066 218.665 137.096C219.227 137.096 219.227 136.209 218.665 136.209C215.827 136.15 212.014 135.499 210.714 132.603C210.477 132.1 209.709 132.573 209.945 133.076Z" fill="#56597A"/>
<path d="M216.327 135.943C216.239 136.682 216.15 137.421 216.061 138.13C216.002 138.692 216.889 138.692 216.948 138.13C217.037 137.391 217.126 136.652 217.214 135.943C217.273 135.381 216.387 135.381 216.327 135.943Z" fill="#56597A"/>
<path d="M218.013 135.943C217.924 136.682 217.835 137.421 217.776 138.16C217.717 138.721 218.604 138.721 218.663 138.16C218.752 137.421 218.84 136.682 218.9 135.943C218.959 135.381 218.072 135.381 218.013 135.943Z" fill="#56597A"/>
<path d="M218.78 137.184C220.879 136.711 222.623 135.411 223.717 133.578C224.012 133.076 223.244 132.632 222.948 133.135C221.943 134.79 220.406 135.884 218.544 136.327C217.982 136.475 218.219 137.332 218.78 137.184Z" fill="#56597A"/>
<path d="M212.309 91.5744C211.422 96.8064 212.397 103.043 217.747 105.438C218.25 105.674 218.723 104.906 218.191 104.669C213.195 102.423 212.338 96.6586 213.166 91.8109C213.254 91.2493 212.397 91.0128 212.309 91.5744Z" fill="#56597A"/>
<path d="M230.487 90.1556C230.546 91.8405 230.517 93.5549 230.753 95.2103C230.99 97.0134 232.615 99.0234 231.758 100.827C231.522 101.329 232.29 101.802 232.527 101.27C233.295 99.6441 232.615 98.2844 232.054 96.6882C231.315 94.6486 231.492 92.2839 231.403 90.1261C231.344 89.5644 230.457 89.5644 230.487 90.1556Z" fill="#56597A"/>
<path d="M220.171 104.817C221.472 104.137 222.95 104.847 223.245 106.265C223.275 106.413 223.482 106.354 223.452 106.206C223.097 104.64 221.472 103.871 220.053 104.61C219.935 104.699 220.053 104.906 220.171 104.817Z" fill="white"/>
<path d="M222.416 106.325C222.623 106.561 222.771 106.827 222.86 107.123C222.919 107.27 223.126 107.211 223.067 107.064C222.948 106.738 222.771 106.443 222.564 106.177C222.475 106.059 222.298 106.236 222.416 106.325Z" fill="white"/>
<path d="M228.36 104.255C228.626 103.043 229.395 102.038 230.518 101.477C230.636 101.418 230.548 101.211 230.4 101.299C229.217 101.861 228.419 102.925 228.153 104.196C228.124 104.344 228.331 104.403 228.36 104.255Z" fill="white"/>
<path d="M176.303 41.5898C174.263 42.6244 172.549 44.5753 171.78 45.4325C169.888 47.5903 168.913 49.6004 167.849 51.8469C166.962 53.6795 165.927 56.2808 165.1 59.5323C166.252 59.7392 167.405 59.9165 168.558 60.1235C168.499 61.2467 168.499 62.902 168.942 64.8529C169.356 66.6265 170.036 69.4642 172.401 71.4447C175.652 74.2232 179.968 73.5434 180.766 73.4251C180.825 74.8144 181.121 76.7949 182.244 78.8345C182.54 79.337 182.835 79.8099 183.131 80.2238C184.757 79.7508 187.269 78.7754 189.722 76.7653C195.989 71.7107 196.846 64.1731 197.112 61.9857C197.497 58.6159 198.236 52.2607 194.068 46.9992C189.722 41.5603 181.475 38.9886 176.303 41.5898Z" fill="white"/>
<path d="M170.243 47.7381C171.07 46.4966 172.667 44.664 174.47 43.3929C177.367 41.3533 178.667 42.2105 180.145 40.4074C181.209 39.1068 181.889 36.9786 181.091 35.9735C179.82 34.3773 175.297 36.2987 174.706 36.5647C173.406 37.1263 169.12 38.9295 167.405 43.4816C165.986 47.2947 166.932 51.4626 167.582 51.5513C167.76 51.5808 167.878 51.2852 168.824 49.8368C169.267 49.0978 169.77 48.418 170.243 47.7381Z" fill="#56597A"/>
<path d="M176.69 38.8408C176.453 39.6094 176.098 41.1464 177.281 44.1615C179.379 49.5708 184.286 54.4185 186.74 53.5318C187.272 53.3249 187.833 52.7928 188.897 52.7337C189.164 52.7337 190.228 52.6745 191.055 53.3249C192.356 54.3594 192.415 56.6059 191.558 58.0543C191.41 58.3204 190.612 59.5323 189.4 59.621C188.336 59.7096 187.981 58.882 187.124 58.8229C185.025 58.7046 183.222 63.3159 182.986 63.9366C182.513 65.119 181.36 68.1931 182.188 72.1245C182.365 72.9817 182.779 74.7849 184.05 76.6471C186.799 80.6376 191.41 81.613 193.124 81.9678C194.809 82.3225 201.224 83.6526 206.219 79.5143C207.017 78.864 209.648 76.6175 210.358 72.8044C211.569 66.3605 206.16 61.5423 205.835 61.2763C205.598 57.9361 204.8 52.6154 201.992 46.7923C200.219 43.0974 198.563 39.698 194.809 37.1264C189.873 33.7862 182.69 32.8403 178.936 35.7371C178.552 36.0918 177.281 37.0968 176.69 38.8408Z" fill="#56597A"/>
<path d="M171.071 70.5579C170.628 71.0013 169.327 72.361 169.091 74.4892C168.765 77.4452 170.746 79.4847 171.16 79.8986C173.318 82.1155 176.924 83.0023 179.525 81.6721C179.732 81.5835 182.008 80.3715 182.097 78.6275C182.126 77.859 181.712 77.4747 181.121 75.7603C180.737 74.637 180.5 73.7207 180.323 73.0999C179.525 73.366 178.165 73.7207 176.48 73.4842C173.465 73.1 171.603 71.149 171.071 70.5579Z" fill="#56597A"/>
<path opacity="0.12" d="M176.982 41.442C177.012 42.3583 177.13 43.718 177.751 45.1664C178.165 46.1419 178.579 46.7331 178.904 47.206C180.145 49.0978 180.559 50.8714 181.209 52.8518C182.244 55.926 182.067 58.4976 181.86 61.69C181.682 64.3504 181.091 68.4 179.17 73.0999C179.968 73.3364 181.121 73.8093 182.362 74.637C184.638 76.1741 185.673 78.0067 186.323 78.864C187.653 80.608 190.609 82.4406 197.733 82.3224C197.024 81.613 196.019 80.5488 194.925 79.2482C192.353 76.2332 190.107 73.6024 188.777 70.41C188.008 68.5774 186.826 64.8233 187.742 59.3844C188.57 59.7982 189.545 59.7687 190.314 59.2662C191.112 58.7341 191.614 57.67 191.348 56.6945C191.023 55.5713 189.663 54.8027 188.274 55.1574C187.978 54.4185 187.506 53.3543 186.737 52.2015C185.525 50.3984 184.254 49.2752 183.781 48.8613C182.274 47.5607 180.086 45.3438 176.982 41.442Z" fill="#606060"/>
<path opacity="0.14" d="M165.426 59.0002C165.455 58.5272 166.963 58.143 168.234 58.2316C169.357 58.3203 170.687 58.8228 170.658 59.2662C170.628 59.6801 169.387 60.0052 168.47 60.0348C167.052 60.0939 165.426 59.4731 165.426 59.0002Z" fill="#606060"/>
<path d="M169.091 48.0042C167.406 51.6991 165.898 55.4531 164.598 59.2958C164.509 59.5323 164.686 59.7687 164.893 59.8279C166.046 60.2712 167.199 60.4782 168.411 60.4486C168.972 60.4486 168.972 59.5618 168.411 59.5618C167.258 59.5618 166.194 59.3549 165.13 58.9706C165.218 59.148 165.337 59.3253 165.425 59.5027C166.696 55.7191 168.145 52.0242 169.83 48.418C170.096 47.945 169.327 47.4721 169.091 48.0042Z" fill="#56597A"/>
<path d="M168.292 60.6259C168.528 64.4391 168.883 68.666 171.721 71.5333C174.44 74.3119 178.371 74.0754 181.948 73.6616C182.51 73.6024 182.51 72.7157 181.948 72.7748C178.637 73.1591 174.883 73.4842 172.341 70.9125C169.681 68.2227 169.415 64.2026 169.179 60.6259C169.149 60.0643 168.262 60.0643 168.292 60.6259Z" fill="#56597A"/>
<path d="M180.204 73.7503C180.588 75.8194 181.297 77.7999 182.302 79.6326C182.568 80.1351 183.337 79.6917 183.071 79.1892C182.095 77.386 181.445 75.5238 181.061 73.5138C180.972 72.9522 180.115 73.1886 180.204 73.7503Z" fill="#56597A"/>
<path d="M168.884 65.1485C170.333 66.4196 172.49 65.8284 173.052 63.9661C173.229 63.4045 172.372 63.1976 172.195 63.7297C171.84 64.912 170.451 65.3554 169.534 64.4982C169.091 64.1435 168.47 64.7642 168.884 65.1485Z" fill="#56597A"/>
<path d="M171.603 63.9366C172.076 64.0548 172.43 64.3209 172.726 64.6756C172.874 64.8529 173.199 64.8234 173.347 64.6756C173.524 64.4982 173.494 64.2322 173.347 64.0548C172.962 63.5819 172.43 63.2272 171.839 63.0794C171.307 62.9316 171.071 63.7888 171.603 63.9366Z" fill="#56597A"/>
<path d="M172.933 52.8814C173.169 51.6399 174.706 51.8764 175.534 52.3198C176.243 52.7041 176.746 53.3248 177.041 54.0638C177.248 54.5959 178.105 54.3594 177.899 53.8273C177.426 52.5563 176.45 51.5513 175.09 51.1966C173.849 50.8714 172.371 51.2557 172.105 52.645C171.987 53.2066 172.844 53.4431 172.933 52.8814Z" fill="#56597A"/>
<path d="M172.901 47.6494C174.232 45.4325 176.833 47.1469 177.365 49.0092C177.513 49.5708 178.37 49.3343 178.222 48.7727C177.838 47.413 176.892 46.1419 175.444 45.7872C174.143 45.4916 172.813 46.0532 172.133 47.1765C171.837 47.7086 172.606 48.1519 172.901 47.6494Z" fill="#56597A"/>
<path d="M173.788 57.9065C174.349 57.9065 174.349 57.0197 173.788 57.0197C173.226 57.0197 173.197 57.9065 173.788 57.9065Z" fill="#56597A"/>
<path d="M175.477 56.5764C175.506 56.5764 175.565 56.5764 175.595 56.5764C175.831 56.5764 176.038 56.3694 176.038 56.133C176.038 55.8965 175.831 55.6896 175.595 55.6896C175.565 55.6896 175.506 55.6896 175.477 55.6896C175.24 55.6896 175.033 55.8965 175.033 56.133C175.033 56.399 175.24 56.5764 175.477 56.5764Z" fill="#56597A"/>
<path d="M175.504 58.0838C175.504 58.1134 175.504 58.143 175.504 58.1725C175.504 58.7342 176.391 58.7342 176.391 58.1725C176.391 58.143 176.391 58.1134 176.391 58.0838C176.391 57.5222 175.504 57.5222 175.504 58.0838C175.504 58.1134 175.504 58.143 175.504 58.1725C175.504 58.7342 176.391 58.7342 176.391 58.1725C176.391 58.143 176.391 58.1134 176.391 58.0838C176.391 57.5222 175.504 57.5222 175.504 58.0838Z" fill="#56597A"/>
<path d="M188.393 53.5613C189.191 52.4084 190.55 53.1474 191.023 54.0933C191.408 54.8323 191.408 55.7191 191.378 56.5172C191.26 58.5272 189.575 59.9461 187.624 58.7046C187.151 58.3794 186.708 59.148 187.181 59.4731C188.334 60.2416 189.811 60.3303 190.964 59.4436C192.147 58.5272 192.354 57.0197 192.265 55.6008C192.176 54.2411 191.644 52.7336 190.225 52.2311C189.22 51.8764 188.215 52.2607 187.624 53.1179C187.329 53.5613 188.097 54.0046 188.393 53.5613Z" fill="#56597A"/>
<path d="M108.878 36.683C108.258 36.683 107.637 36.7126 107.046 36.7126C106.041 38.6635 105.479 40.437 105.154 41.7376C104.208 45.5508 104.445 48.7136 104.622 50.2507C104.74 51.2853 104.917 52.1425 105.065 52.7337C105.597 52.7337 106.129 52.7337 106.661 52.7337C106.868 53.4431 107.075 54.1525 107.282 54.862C112.278 54.8324 116.386 54.8324 119.254 54.862C136.635 55.0097 148.754 55.6896 151.562 55.8374C155.079 56.0443 157.947 56.2512 159.72 56.3695C159.779 55.2758 160.075 54.8915 160.341 54.7733C160.814 54.5664 161.228 55.0689 161.849 54.9506C162.499 54.8324 162.913 54.1525 163.179 53.5318C163.711 53.7978 164.686 54.1525 165.839 53.9752C166.105 53.9456 166.342 53.8569 166.548 53.7978C167.051 52.7928 167.553 51.7878 168.056 50.7828C167.347 50.5463 166.342 50.3394 165.13 50.3394C164.45 50.3394 163.859 50.4281 163.356 50.5167C163.297 50.3689 162.824 49.0388 161.583 48.7432C161.198 48.6545 160.873 48.6841 160.607 48.7432C160.43 48.418 160.252 48.0929 160.075 47.7677C159.366 47.6495 158.272 47.4721 156.971 47.2357C146.419 45.3143 139.058 42.9791 133.442 41.2943C128.062 39.6685 120.229 37.4516 110.179 34.9981C109.765 35.5598 109.322 36.1214 108.878 36.683Z" fill="white"/>
<path opacity="0.07" d="M104.713 48.152C104.979 48.0929 105.274 48.7728 105.599 48.6841C106.131 48.5658 106.013 46.7036 106.131 45.3143C106.22 43.9842 106.604 42.0628 107.905 39.7276C108.762 40.0823 110.063 40.644 111.629 41.3238C117.275 43.7772 121.177 45.669 122.359 46.2011C130.163 49.8369 138.735 51.4627 140.893 51.8765C145.8 52.8224 152.599 53.65 160.757 53.2953C160.402 54.2708 160.047 55.2462 159.693 56.2217C158.333 56.1921 156.353 56.1921 153.929 56.133C143.524 55.9261 136.252 55.6009 132.084 55.4236C126.202 55.1871 117.778 54.9506 107.136 54.9802C107.018 54.1821 106.9 53.384 106.782 52.5859C106.102 52.7041 105.422 52.8224 104.742 52.9406C104.299 49.2457 104.417 48.2111 104.713 48.152Z" fill="#606060"/>
<path d="M109.498 35.0277C105.804 40.7327 104.769 47.8269 106.661 54.3595C106.809 54.9211 107.666 54.6846 107.518 54.123C105.685 47.7973 106.69 40.9987 110.267 35.4711C110.592 34.9686 109.824 34.5252 109.498 35.0277Z" fill="#56597A"/>
<path d="M110.269 35.8849C126.911 40.0823 143.523 44.2797 160.165 48.4476C160.726 48.5954 160.963 47.7382 160.401 47.5904C143.759 43.393 127.147 39.1956 110.505 35.0277C109.973 34.8799 109.737 35.7371 110.269 35.8849Z" fill="#56597A"/>
<path d="M107.285 55.3349C124.636 55.1871 141.987 55.601 159.309 56.5469C159.87 56.5764 159.87 55.6896 159.309 55.6601C141.987 54.7142 124.636 54.3004 107.285 54.4482C106.723 54.4482 106.723 55.3349 107.285 55.3349Z" fill="#56597A"/>
<path d="M159.899 48.1224C161.082 50.7532 160.816 53.7387 159.19 56.133C158.865 56.6059 159.633 57.0493 159.958 56.5764C161.762 53.9161 161.998 50.6054 160.668 47.6791C160.431 47.1766 159.663 47.6199 159.899 48.1224Z" fill="#56597A"/>
<path d="M160.787 49.2753C161.112 49.5117 161.349 49.4231 161.733 49.5117C162.472 49.7187 162.768 50.3985 162.916 51.1079C163.152 52.4085 162.827 55.1576 160.906 54.389C160.373 54.1821 160.137 55.0393 160.669 55.2462C162.62 56.0148 163.891 53.9752 163.891 52.2608C163.891 51.3149 163.773 50.2507 163.241 49.4526C163.063 49.1866 162.827 48.9206 162.531 48.7728C162.147 48.5954 161.615 48.7136 161.29 48.4772C160.758 48.1816 160.314 48.9501 160.787 49.2753Z" fill="#56597A"/>
<path d="M163.386 50.901C164.894 50.8124 166.401 50.8419 167.879 51.0488C168.441 51.1079 168.441 50.2212 167.879 50.162C166.372 49.9847 164.894 49.9256 163.386 50.0143C162.824 50.0734 162.824 50.9601 163.386 50.901Z" fill="#56597A"/>
<path d="M163.268 54.1525C164.48 54.3594 165.692 54.4481 166.904 54.3299C167.466 54.2708 167.466 53.384 166.904 53.4431C165.751 53.5318 164.628 53.5022 163.505 53.2953C162.943 53.2066 162.707 54.0343 163.268 54.1525Z" fill="#56597A"/>
<path d="M108.998 36.4466C106.13 34.7913 105.332 39.9641 104.948 41.5899C104.061 45.3439 103.647 49.2162 104.741 52.9702C104.8 53.1476 104.977 53.2954 105.155 53.2954C105.539 53.2954 105.953 53.2954 106.337 53.2954C106.899 53.2954 106.899 52.4086 106.337 52.4086C105.953 52.4086 105.539 52.4086 105.155 52.4086C105.303 52.5268 105.45 52.6155 105.569 52.7337C104.8 50.0143 104.8 47.2653 105.243 44.4867C105.45 43.2452 105.716 42.0037 106.042 40.7918C106.249 39.9937 106.899 36.2397 108.525 37.2151C109.057 37.5107 109.5 36.7422 108.998 36.4466Z" fill="#56597A"/>
<path d="M140.951 42.8012C140.419 42.1509 139.532 42.2395 139.414 42.2395C138.439 42.2987 137.493 43.1854 136.458 45.3433C134.448 49.452 134.359 53.5607 134.359 54.211C134.33 57.0487 134.596 61.66 136.606 67.158C136.783 69.4636 137.168 72.6856 138.025 76.4396C139.532 83.1791 141.129 90.2733 146.627 96.5694C148.696 98.9637 152.775 103.605 159.869 105.289C167.288 107.063 173.319 104.432 174.797 103.752C176.097 103.132 179.733 101.299 182.807 97.4267C184.669 95.0915 186.827 92.5494 186.472 89.4161C186.325 88.0564 185.733 86.9036 184.847 85.0709C183.96 83.2382 183.487 82.3219 182.541 81.9672C181.24 81.4647 179.851 82.3514 178.314 83.2382C175.713 84.7162 175.476 86.135 172.668 87.613C171.929 87.9973 171.19 88.2633 169.712 88.7362C167.377 89.5048 165.072 90.2733 162.943 90.4211C158.302 90.7463 154.578 88.0859 153.514 87.3174C149.582 84.5093 148.045 80.7552 147.04 78.3018C144.794 72.8038 144.971 67.7492 145.356 64.7933C146.745 64.5568 147.602 63.9951 148.016 63.67C149.582 62.4581 149.967 60.7732 150.558 58.172C150.942 56.5462 151.12 55.689 150.706 55.3639C149.849 54.7135 147.218 56.8418 146.627 57.3443C146.745 55.3343 147.04 53.7085 147.336 52.5557C147.72 51.0186 147.927 50.2205 148.459 49.5998C149.494 48.3879 150.706 48.5061 151.12 47.3533C151.356 46.7326 151.326 45.8753 150.824 45.3728C150.233 44.7816 148.962 44.8112 147.868 45.6684C147.513 44.8999 146.804 44.4269 146.035 44.3974C145.267 44.3678 144.764 44.8408 144.617 44.959C144.705 44.1609 144.351 43.4219 143.759 43.1263C142.961 42.7125 141.69 43.1854 141.217 44.3974C141.247 44.2496 141.454 43.4219 140.951 42.8012Z" fill="white"/>
<path opacity="0.12" d="M139.41 42.2395C138.701 43.481 137.814 45.3137 137.223 47.708C135.923 52.9104 136.987 57.2556 137.46 59.3543C142.544 81.0212 140.327 81.5533 143.874 86.6375C145.175 88.4702 154.101 100.767 167.403 99.141C178.547 97.7813 184.459 87.6425 185.227 86.2828C185.671 87.4651 186.203 89.4752 185.848 91.8695C185.316 95.387 183.129 97.604 182.331 98.4316C181.562 99.2002 180.616 99.88 178.695 101.21C176.98 102.422 175.295 103.486 174.556 103.871C171.039 105.851 165.6 106.324 161.816 105.821C151.53 104.462 145.352 94.7072 142.78 90.6576C136.898 81.4055 136.307 72.0352 136.366 67.3649C135.804 65.4731 135.243 63.5517 134.681 61.6599C134.297 58.7336 134.267 56.3097 134.326 54.6248C134.474 50.3979 134.592 47.235 136.75 44.5451C137.696 43.3628 138.731 42.6533 139.41 42.2395Z" fill="#606060"/>
<path d="M179.435 100.767C184.105 98.5505 187.238 93.9097 186.47 88.6482C186.027 85.4558 183.455 79.9577 179.346 81.9086C177.513 82.7954 176.006 84.4212 174.321 85.574C171.986 87.1702 169.296 88.4117 166.606 89.2689C163.177 90.3626 159.364 90.5991 156.053 88.9437C153.63 87.7318 151.738 85.7513 150.289 83.5048C147.097 78.5684 145.442 72.7453 145.826 66.863C145.856 66.3014 144.969 66.3014 144.939 66.863C144.614 71.8289 145.708 76.5584 147.895 80.9923C149.816 84.9532 152.625 88.6777 156.881 90.2739C162.054 92.1953 167.7 90.2444 172.37 87.7909C174.469 86.6677 176.272 85.2193 178.164 83.7709C179.878 82.4407 181.593 81.7904 183.337 83.564C185.494 85.7514 186.145 89.5645 185.494 92.4613C184.696 95.9197 182.125 98.5209 178.991 99.9989C178.489 100.235 178.932 101.004 179.435 100.767Z" fill="#56597A"/>
<path d="M145.767 67.2473C145.382 65.6215 146.535 65.2077 147.599 64.4392C148.22 63.9958 148.693 63.375 149.136 62.7543C150.26 61.1285 151.146 59.2367 151.383 57.2563C151.501 56.2808 151.708 54.7437 150.378 54.6846C148.811 54.6255 148.161 56.606 146.683 56.7538C146.121 56.8129 146.121 57.6997 146.683 57.6405C147.806 57.5223 148.368 56.8129 149.225 56.1626C149.728 55.7783 150.289 55.3349 150.555 56.1921C150.703 56.6651 150.467 57.5519 150.348 58.0248C150.141 59.0298 149.698 60.0053 149.225 60.9216C148.782 61.7493 148.279 62.6065 147.599 63.2864C146.979 63.9367 146.121 64.0845 145.441 64.6165C144.525 65.3259 144.673 66.5379 144.909 67.5133C145.057 68.0454 145.914 67.8089 145.767 67.2473Z" fill="#56597A"/>
<path d="M135.452 62.5769C134.861 58.7638 134.801 54.8619 135.393 51.0488C135.629 49.5117 135.925 47.9451 136.457 46.4671C136.782 45.5508 137.225 44.4866 137.876 43.7477C138.762 42.7722 140.506 42.2697 140.979 43.925C141.127 44.4866 141.984 44.2502 141.837 43.6885C141.423 42.2697 140.063 41.5012 138.644 42.0628C136.841 42.8018 135.984 45.0187 135.422 46.7036C133.767 51.8173 133.767 57.5518 134.565 62.8134C134.683 63.375 135.54 63.1385 135.452 62.5769Z" fill="#56597A"/>
<path d="M139.737 47.3244C140.446 45.5804 142.456 42.0628 144.644 44.4571C145.028 44.8709 145.649 44.2502 145.264 43.8364C144.259 42.7427 142.811 42.5653 141.54 43.3043C140.121 44.1024 139.471 45.669 138.88 47.1174C138.673 47.6199 139.53 47.8564 139.737 47.3244Z" fill="#56597A"/>
<path d="M143.46 48.0633C143.489 46.9401 143.933 45.6986 145.026 45.1665C145.943 44.7231 147.036 44.9301 147.657 45.7282C148.012 46.1715 148.633 45.5508 148.278 45.1074C147.421 44.0433 145.884 43.7772 144.672 44.3389C143.253 45.0187 142.603 46.5558 142.573 48.0633C142.543 48.625 143.43 48.625 143.46 48.0633Z" fill="#56597A"/>
<path d="M146.032 48.3589C146.565 46.3785 148.781 44.5753 150.703 46.1715C151.146 46.5262 151.767 45.9055 151.324 45.5508C148.87 43.5408 145.914 45.4326 145.175 48.1224C145.027 48.6841 145.885 48.9205 146.032 48.3589Z" fill="#56597A"/>
<path d="M150.528 46.0238C151.474 47.3539 149.375 48.1816 148.636 48.8023C148.015 49.3048 147.66 49.9551 147.394 50.6941C146.685 52.7337 146.36 54.9507 146.183 57.0789C146.123 57.6405 147.01 57.6405 147.069 57.0789C147.217 55.5123 147.454 53.9456 147.838 52.4086C147.956 51.9061 148.074 51.4035 148.252 50.901C148.636 49.8665 149.198 49.4822 150.055 48.8615C151.119 48.0929 152.242 46.8514 151.296 45.5213C150.971 45.1074 150.203 45.5508 150.528 46.0238Z" fill="#56597A"/>
<path d="M134.355 61.6901C134.828 63.7002 135.419 65.6806 136.158 67.6316C136.365 68.1636 137.222 67.9271 137.015 67.3951C136.276 65.4442 135.685 63.4637 135.212 61.4537C135.094 60.892 134.237 61.1285 134.355 61.6901Z" fill="#56597A"/>
<path d="M136.013 68.1932C137.136 78.3616 139.648 88.796 146.477 96.7179C151.915 103.014 160.547 107.803 169.06 106.236C173.08 105.497 176.745 103.487 179.672 100.679C180.085 100.295 179.465 99.6442 179.051 100.058C173.198 105.674 164.862 107.152 157.443 103.812C149.462 100.176 143.875 93.3481 140.713 85.2784C138.584 79.81 137.52 74.0164 136.87 68.2228C136.84 67.6316 135.953 67.6316 136.013 68.1932Z" fill="#56597A"/>
</svg>
