<svg width="346" height="325" viewBox="0 0 346 325" fill="none" xmlns="http://www.w3.org/2000/svg">
<path d="M208.436 26.4328C201.17 30.7333 199.094 38.1478 198.234 41.2026C198.026 41.944 195.594 51.0491 199.806 60.5397C201.051 63.3572 202.386 66.2637 205.411 67.6576C207.161 68.488 208.733 68.4287 214.902 67.8949C217.778 67.6576 220.892 67.361 224.214 67.0051C226.557 64.0097 230.591 58.0187 231.777 49.5958C231.985 48.0239 234.417 29.28 224.214 24.2974C217.541 21.0054 209.504 25.7804 208.436 26.4328Z" fill="#F78BB6"/>
<path d="M74.2633 70.6531C77.9651 70.6531 80.966 67.3335 80.966 63.2386C80.966 59.1436 77.9651 55.824 74.2633 55.824C70.5615 55.824 67.5605 59.1436 67.5605 63.2386C67.5605 67.3335 70.5615 70.6531 74.2633 70.6531Z" fill="#F78BB6"/>
<path d="M226.262 189.463C229.014 189.463 231.244 187.312 231.244 184.659C231.244 182.005 229.014 179.854 226.262 179.854C223.51 179.854 221.279 182.005 221.279 184.659C221.279 187.312 223.51 189.463 226.262 189.463Z" fill="#F78BB6"/>
<path d="M74.3245 160.458C76.3719 160.458 78.0317 158.798 78.0317 156.751C78.0317 154.703 76.3719 153.043 74.3245 153.043C72.277 153.043 70.6172 154.703 70.6172 156.751C70.6172 158.798 72.277 160.458 74.3245 160.458Z" fill="#F78BB6"/>
<path d="M67.4137 68.1914C70.6732 68.1914 73.3156 65.4163 73.3156 61.9929C73.3156 58.5695 70.6732 55.7943 67.4137 55.7943C64.1541 55.7943 61.5117 58.5695 61.5117 61.9929C61.5117 65.4163 64.1541 68.1914 67.4137 68.1914Z" fill="#56597A"/>
<path d="M224.898 181.871C226.913 181.871 228.546 180.171 228.546 178.075C228.546 175.978 226.913 174.279 224.898 174.279C222.883 174.279 221.25 175.978 221.25 178.075C221.25 180.171 222.883 181.871 224.898 181.871Z" fill="#56597A"/>
<path d="M273.656 77.1778C275.867 77.1778 277.66 75.2657 277.66 72.9071C277.66 70.5484 275.867 68.6363 273.656 68.6363C271.445 68.6363 269.652 70.5484 269.652 72.9071C269.652 75.2657 271.445 77.1778 273.656 77.1778Z" fill="#56597A"/>
<path d="M186.699 103.574C186.046 102.536 184.979 103.514 184.534 104.226C183.614 105.709 183.021 107.548 183.703 109.238C184.208 110.514 185.453 111.581 186.906 111.374C188.241 111.196 189.249 110.098 189.22 108.764C189.22 108.408 188.716 108.141 188.449 108.438C186.877 110.425 184.949 113.242 186.521 115.793C187.618 117.543 190.317 117.78 191.385 115.882C191.118 115.852 190.851 115.822 190.584 115.763C190.732 116.594 190.881 117.424 190.999 118.254C191.088 118.818 191.948 118.581 191.859 118.017C191.711 117.187 191.563 116.356 191.444 115.526C191.385 115.14 190.792 115.111 190.643 115.407C190.169 116.238 189.101 116.534 188.241 116.119C187.292 115.644 186.877 114.577 186.877 113.539C186.877 111.819 188.093 110.306 189.101 109.031C188.834 108.912 188.597 108.823 188.33 108.704C188.36 109.831 187.262 110.662 186.165 110.425C185.335 110.247 184.801 109.535 184.504 108.764C184.208 107.963 184.237 107.162 184.475 106.361C184.504 106.302 185.72 103.663 185.898 103.959C186.224 104.493 186.995 104.048 186.699 103.574Z" fill="#F78BB6"/>
<path d="M65.6052 106.243C66.2577 104.463 68.4228 105.234 69.1049 106.48C69.3422 106.895 69.4608 107.37 69.5201 107.844C69.6387 108.734 69.5498 109.09 68.7786 109.624C67.9482 110.454 67.7406 110.128 68.1855 108.645C68.3931 108.556 68.6304 108.467 68.838 108.378C69.4015 108.23 70.0539 108.26 70.6175 108.438C72.041 108.912 72.7528 110.425 72.5452 111.819C72.4859 112.174 72.8418 112.53 73.1977 112.323C75.1255 111.225 77.6761 112.441 78.121 114.606C78.2396 115.17 79.0997 114.933 78.981 114.369C78.4175 111.641 75.1848 110.217 72.7528 111.581C72.9604 111.759 73.1977 111.908 73.4053 112.085C73.7909 109.476 71.8038 107.044 69.0456 107.459C68.0965 107.607 66.6729 108.2 66.5543 109.327C66.4653 110.247 67.3254 110.929 68.1855 111.018C70.7361 111.255 70.6768 107.548 69.8463 106.065C68.7193 104.048 65.6052 103.544 64.7155 106.035C64.5375 106.539 65.3976 106.777 65.6052 106.243Z" fill="#F78BB6"/>
<path d="M221.755 217.876C224.038 219.389 225.966 221.316 227.508 223.57C227.835 224.045 228.606 223.6 228.28 223.125C226.648 220.753 224.632 218.736 222.229 217.135C221.725 216.779 221.28 217.55 221.755 217.876Z" fill="#56597A"/>
<path d="M227.538 219.507C228.012 220.071 228.457 220.664 228.932 221.227C229.288 221.672 229.911 221.049 229.555 220.605C229.08 220.041 228.635 219.448 228.161 218.884C227.805 218.44 227.182 219.092 227.538 219.507Z" fill="#56597A"/>
<path d="M224.809 211.203C226.855 213.101 228.546 215.266 229.851 217.728C230.118 218.232 230.889 217.787 230.622 217.283C229.287 214.762 227.537 212.508 225.432 210.58C225.016 210.165 224.394 210.817 224.809 211.203Z" fill="#56597A"/>
<path d="M19.7528 244.598C20.4053 251.034 21.5323 257.381 23.1042 263.668C23.2525 264.232 24.1126 263.994 23.9643 263.431C22.4221 257.232 21.2951 250.945 20.6426 244.598C20.5833 244.035 19.6935 244.035 19.7528 244.598Z" fill="#E8E8E8"/>
<path d="M23.2833 263.965C29.126 265.477 35.2059 265.477 41.0486 263.965C41.6121 263.816 41.3748 262.956 40.8113 263.105C35.1169 264.587 29.215 264.587 23.5206 263.105C22.9868 262.956 22.7495 263.816 23.2833 263.965Z" fill="#E8E8E8"/>
<path d="M41.7284 263.075C42.1139 256.758 42.6181 250.441 43.2113 244.123C43.2706 243.56 42.3808 243.56 42.3215 244.123C41.7284 250.441 41.2242 256.758 40.8386 263.075C40.809 263.639 41.6987 263.639 41.7284 263.075Z" fill="#E8E8E8"/>
<path d="M20.2558 245.072C27.6407 246.585 35.2332 246.526 42.618 244.865C43.1815 244.746 42.9443 243.886 42.3808 244.005C35.1738 245.606 27.7297 245.695 20.4931 244.212C19.9296 244.094 19.6923 244.954 20.2558 245.072Z" fill="#E8E8E8"/>
<path d="M20.1688 247.208C20.406 248.424 21.9482 248.365 22.8973 248.454C25.2996 248.661 27.7316 248.72 30.1339 248.661C32.4472 248.602 34.7606 248.424 37.0739 248.157C38.9127 247.92 40.6922 247.682 42.3234 246.763C42.8276 246.496 42.3827 245.725 41.8785 245.992C38.9424 247.623 34.8792 247.564 31.5871 247.712C29.9559 247.771 28.2951 247.801 26.6639 247.771C25.8038 247.742 21.2068 247.949 21.0288 246.971C20.9102 246.407 20.0798 246.644 20.1688 247.208Z" fill="#E8E8E8"/>
<path d="M21.8581 257.499C23.2817 260.02 25.0908 262.245 27.2559 264.172C27.6711 264.558 28.3236 263.935 27.8787 263.55C25.7433 261.681 23.9935 259.516 22.6292 257.054C22.3623 256.55 21.5912 256.995 21.8581 257.499Z" fill="#E8E8E8"/>
<path d="M20.6995 250.648C23.7246 255.749 27.4023 260.435 31.6137 264.647C32.0289 265.062 32.6517 264.41 32.2365 264.024C28.0844 259.872 24.4661 255.245 21.4706 250.203C21.174 249.729 20.4029 250.174 20.6995 250.648Z" fill="#E8E8E8"/>
<path d="M25.655 248.513C28.7987 254.118 32.4467 259.427 36.5691 264.38C36.925 264.825 37.5479 264.202 37.192 263.757C33.1288 258.864 29.5105 253.614 26.4261 248.068C26.1591 247.564 25.388 248.009 25.655 248.513Z" fill="#E8E8E8"/>
<path d="M31.3191 248.72C34.3738 253.288 37.4583 257.825 40.5724 262.363C40.8986 262.838 41.6697 262.393 41.3435 261.918C38.2294 257.381 35.1449 252.843 32.0902 248.276C31.7639 247.801 30.9928 248.246 31.3191 248.72Z" fill="#E8E8E8"/>
<path d="M36.0628 248.454C37.605 250.945 39.2659 253.377 40.986 255.749C41.3123 256.194 42.0834 255.749 41.7572 255.305C40.037 252.932 38.3761 250.5 36.8339 248.009C36.5373 247.534 35.7662 247.979 36.0628 248.454Z" fill="#E8E8E8"/>
<path d="M10.4097 218.499C10.7656 220.545 11.1214 222.621 11.507 224.668C11.6256 225.231 11.7146 225.824 12.1891 226.18C12.5154 226.447 13.5831 226.418 13.7907 226.714C13.8203 226.536 13.85 226.358 13.85 226.18C13.4051 226.625 12.9603 227.07 12.4857 227.485C12.3671 227.604 12.3374 227.782 12.3671 227.93C12.634 228.731 12.812 229.917 13.3458 230.599C13.6127 230.955 14.0873 230.896 14.2949 231.104C14.4728 231.282 14.4135 231.163 14.3245 231.697C14.2652 232.142 14.2652 232.616 14.3245 233.091C14.4135 233.802 14.6211 234.485 14.888 235.137C16.4302 238.874 19.4257 241.899 22.3026 244.687C22.7178 245.073 23.3406 244.45 22.9254 244.064C21.0866 242.285 19.2478 240.446 17.7352 238.37C16.2523 236.323 14.5025 233.565 15.4219 230.955C15.4812 230.807 15.4219 230.599 15.3032 230.51C14.7397 230.066 14.1762 230.243 13.7907 229.532C13.0492 228.197 13.4644 227.752 14.4135 226.833C14.5618 226.714 14.5914 226.447 14.4728 226.299C14.2355 225.943 14.0576 225.824 13.672 225.706C13.4348 225.617 13.0789 225.706 12.8416 225.587C12.3374 225.32 12.3374 224.668 12.2485 224.193C11.8926 222.236 11.5367 220.249 11.2104 218.291C11.1511 217.698 10.291 217.935 10.4097 218.499Z" fill="#E8E8E8"/>
<path d="M11.0626 218.38C22.6293 222.236 30.548 233.031 30.7853 245.25C30.7853 245.814 31.675 245.814 31.675 245.25C31.4378 232.646 23.2521 221.524 11.2999 217.52C10.7661 217.342 10.5288 218.202 11.0626 218.38Z" fill="#E8E8E8"/>
<path d="M28.8275 233.091C31.7044 225.113 35.9455 217.401 42.7372 212.152C43.1821 211.796 42.7372 211.025 42.2923 211.381C35.293 216.808 30.9333 224.638 27.9675 232.853C27.7895 233.387 28.6496 233.624 28.8275 233.091Z" fill="#E8E8E8"/>
<path d="M41.9675 211.974C42.1751 214.703 42.4124 217.431 42.62 220.189C42.6793 220.753 43.5691 220.753 43.5097 220.189C43.3021 217.461 43.0649 214.732 42.8573 211.974C42.8276 211.411 41.9379 211.411 41.9675 211.974Z" fill="#E8E8E8"/>
<path d="M43.0039 219.893C42.6184 219.982 42.2328 220.071 41.8769 220.189C41.3134 220.338 41.5507 221.198 42.1142 221.049C42.4997 220.96 42.8853 220.872 43.2412 220.753C43.8047 220.605 43.5674 219.774 43.0039 219.893Z" fill="#E8E8E8"/>
<path d="M41.4311 220.99C41.5498 221.554 42.0243 221.909 42.5581 221.969C42.7954 221.998 43.003 221.761 43.003 221.524C43.003 221.257 42.7954 221.109 42.5581 221.079C42.6471 221.079 42.5581 221.079 42.5285 221.079C42.4988 221.079 42.4395 221.049 42.4988 221.079C42.4692 221.049 42.4395 221.049 42.4099 221.02C42.3505 220.99 42.4692 221.079 42.3802 220.99C42.3505 220.96 42.3505 220.96 42.3209 220.931C42.3802 220.99 42.3209 220.931 42.3209 220.901C42.2912 220.871 42.2912 220.812 42.2912 220.871C42.2912 220.842 42.2616 220.782 42.2616 220.753C42.2022 220.516 41.9353 220.367 41.7277 220.456C41.4904 220.516 41.3718 220.753 41.4311 220.99Z" fill="#E8E8E8"/>
<path d="M42.1151 221.643C42.1448 223.333 42.0855 224.994 41.9075 226.655C41.8482 227.189 41.9372 228.434 41.5813 228.85C41.5516 228.879 41.0178 228.968 40.8991 229.057C40.4543 229.413 41.0771 230.036 41.522 229.68C41.6703 229.561 42.0262 229.68 42.2634 229.413C42.6193 229.057 42.56 228.227 42.6193 227.812C42.8862 225.765 43.0049 223.689 42.9752 221.613C43.0049 221.079 42.1151 221.079 42.1151 221.643Z" fill="#E8E8E8"/>
<path d="M40.5418 229.828C41.4908 230.955 41.2239 232.824 41.1349 234.188C41.0163 235.76 40.7494 237.213 39.9783 238.577C38.8809 240.594 37.3387 242.285 36.5379 244.479C36.3303 245.013 37.1904 245.25 37.398 244.717C38.4657 241.84 40.9273 239.704 41.6688 236.679C42.2026 234.514 42.7068 231.044 41.1646 229.205C40.8087 228.79 40.1859 229.413 40.5418 229.828Z" fill="#E8E8E8"/>
<path d="M33.543 244.895C34.3734 236.472 36.5978 228.256 40.1567 220.605C40.394 220.1 39.6229 219.626 39.3856 220.16C35.7673 227.989 33.4837 236.323 32.6532 244.924C32.5939 245.488 33.4837 245.458 33.543 244.895Z" fill="#E8E8E8"/>
<path d="M16.0457 223.333C21.2359 229.858 25.0321 237.361 27.2565 245.369C27.4048 245.933 28.2649 245.695 28.1166 245.132C25.8329 236.946 21.9477 229.354 16.6685 222.71C16.3126 222.265 15.6898 222.888 16.0457 223.333Z" fill="#E8E8E8"/>
<path d="M16.607 234.277C19.0983 234.129 21.4116 234.722 23.5173 236.027C23.9919 236.323 24.4664 235.552 23.9622 235.256C21.7378 233.891 19.2169 233.239 16.607 233.387C16.0138 233.417 16.0138 234.307 16.607 234.277Z" fill="#E8E8E8"/>
<path d="M22.0346 230.303C21.8567 228.672 22.0643 227.1 22.6871 225.557C22.8947 225.024 22.0346 224.786 21.827 225.32C21.1745 226.922 20.9669 228.583 21.1449 230.303C21.2042 230.866 22.0939 230.866 22.0346 230.303Z" fill="#E8E8E8"/>
<path d="M31.6454 225.379C32.6241 227.782 34.0477 230.332 34.4036 232.883C34.4925 233.447 35.3526 233.209 35.2637 232.646C34.8781 230.065 33.4545 227.515 32.5055 225.142C32.2978 224.608 31.4378 224.846 31.6454 225.379Z" fill="#E8E8E8"/>
<path d="M37.1035 228.197C37.9636 227.218 38.794 226.062 39.8914 225.32C40.8108 224.697 41.8192 224.282 42.5309 223.422C42.8868 222.977 42.264 222.354 41.9081 222.799C41.137 223.719 40.01 224.104 39.0906 224.816C38.0822 225.587 37.3111 226.625 36.4807 227.574C36.0951 228.019 36.718 228.642 37.1035 228.197Z" fill="#E8E8E8"/>
<path d="M37.3982 244.598C38.8218 244.212 40.2751 244.064 41.758 244.153C42.3215 244.183 42.3215 243.293 41.758 243.263C40.1861 243.174 38.6735 243.323 37.161 243.738C36.6271 243.886 36.8347 244.746 37.3982 244.598Z" fill="#E8E8E8"/>
<path d="M37.2801 244.954C38.9409 245.102 40.5425 244.894 42.144 244.39C42.6778 244.212 42.4406 243.352 41.9067 243.53C40.3942 244.005 38.8519 244.183 37.2801 244.064C36.7165 244.034 36.7165 244.924 37.2801 244.954Z" fill="#E8E8E8"/>
<path d="M20.6414 244.806C21.0269 244.806 21.3828 244.806 21.7684 244.806C22.3319 244.806 22.3319 243.916 21.7684 243.916C21.3828 243.916 21.0269 243.916 20.6414 243.916C20.0779 243.916 20.0779 244.806 20.6414 244.806Z" fill="#E8E8E8"/>
<path d="M42.3816 251.983C51.7832 251.983 61.2145 251.983 70.6161 251.983C71.1797 251.983 71.1797 251.093 70.6161 251.093C61.2145 251.093 51.7832 251.093 42.3816 251.093C41.8181 251.093 41.8181 251.983 42.3816 251.983Z" fill="#E8E8E8"/>
<path d="M201.528 246.111C207.133 246.111 212.709 246.111 218.315 246.111C218.878 246.111 218.878 245.221 218.315 245.221C212.709 245.221 207.133 245.221 201.528 245.221C200.965 245.221 200.965 246.111 201.528 246.111Z" fill="#E8E8E8"/>
<path d="M252.421 246.644C276.592 246.644 300.763 246.644 324.935 246.644C331.815 246.644 338.696 246.644 345.577 246.644C346.14 246.644 346.14 245.755 345.577 245.755C321.405 245.755 297.234 245.755 273.063 245.755C266.182 245.755 259.301 245.755 252.421 245.755C251.857 245.755 251.857 246.644 252.421 246.644Z" fill="#E8E8E8"/>
<path d="M216.622 149.277C214.368 153.933 211.936 158.5 209.356 162.979C209.237 163.216 209.326 163.602 209.622 163.631C222.346 165.559 233.734 171.876 244.708 178.253C245.212 178.549 245.657 177.778 245.153 177.482C234.09 171.075 222.642 164.729 209.83 162.771C209.919 162.979 210.008 163.216 210.097 163.424C212.707 158.945 215.109 154.378 217.363 149.722C217.63 149.217 216.889 148.743 216.622 149.277Z" fill="#E8E8E8"/>
<path d="M218.581 165.44C219.471 162.89 220.361 160.31 221.251 157.759C221.636 156.691 221.903 155.505 222.407 154.467C222.526 153.844 222.912 153.37 223.505 153.014C223.861 153.103 224.216 153.192 224.572 153.281C225.106 153.429 225.64 153.548 226.144 153.696C227.36 153.992 229.318 153.992 229.11 155.624C228.962 156.78 228.28 158.026 227.894 159.153C227.004 161.674 226.144 164.195 225.255 166.716C225.077 167.25 225.937 167.487 226.115 166.953C227.271 163.631 228.428 160.28 229.585 156.958C229.852 156.187 230.593 154.882 230 154.052C229.347 153.162 227.39 153.103 226.382 152.836C225.403 152.598 223.683 151.709 222.674 152.183C221.814 152.569 221.636 154.052 221.369 154.793C220.153 158.263 218.937 161.763 217.721 165.233C217.543 165.737 218.403 165.974 218.581 165.44Z" fill="#E8E8E8"/>
<path d="M230.027 168.614C231.925 164.61 233.853 160.577 235.751 156.573C236.7 154.556 237.649 152.569 238.628 150.552C239.073 149.633 239.429 148.535 239.992 147.675C240.467 146.934 240.586 146.756 241.416 147.082C241.861 147.26 242.395 147.705 242.78 147.972C243.284 148.328 244.085 148.713 244.441 149.188C244.886 149.751 244.708 150.345 244.441 151.056C244.085 152.005 243.551 152.925 243.107 153.844C242.128 155.861 241.149 157.878 240.111 159.894C238.154 163.72 236.107 167.517 234.001 171.283C233.705 171.787 234.476 172.232 234.773 171.728C237.353 167.161 239.814 162.534 242.128 157.848C243.284 155.535 244.56 153.162 245.538 150.76C246.221 149.01 244.738 148.298 243.433 147.379C242.395 146.667 240.764 145.036 239.636 146.37C238.925 147.201 238.539 148.595 238.065 149.603C237.471 150.819 236.908 152.035 236.315 153.281C233.942 158.263 231.569 163.246 229.227 168.228C229.019 168.673 229.79 169.148 230.027 168.614Z" fill="#E8E8E8"/>
<path d="M239.875 174.783C242.426 170.779 245.303 166.983 248.476 163.483C248.298 163.513 248.12 163.542 247.942 163.542C249.069 164.313 250.166 165.055 251.293 165.826C251.234 165.618 251.175 165.411 251.145 165.203C248.624 169.148 246.103 173.063 243.582 177.007C243.286 177.482 244.027 177.927 244.353 177.452C246.874 173.507 249.395 169.593 251.916 165.648C252.065 165.44 251.946 165.174 251.768 165.025C250.641 164.254 249.544 163.513 248.417 162.742C248.268 162.623 248.001 162.682 247.883 162.801C244.65 166.389 241.714 170.215 239.134 174.279C238.807 174.842 239.579 175.287 239.875 174.783Z" fill="#E8E8E8"/>
<path d="M275.259 146.578C272.293 145.451 270.425 142.485 270.959 139.312C271.493 136.079 274.666 133.202 277.928 135.13C280.182 136.464 281.339 139.49 280.479 141.951C279.589 144.591 276.683 146.163 273.984 145.747C273.42 145.659 273.183 146.519 273.747 146.608C276.92 147.082 280.271 145.332 281.339 142.189C282.407 139.045 280.687 135.249 277.602 133.973C273.984 132.49 270.692 135.604 270.069 139.074C269.417 142.752 271.582 146.133 274.992 147.438C275.556 147.646 275.793 146.786 275.259 146.578Z" fill="#E8E8E8"/>
<path d="M281.336 146.014C275.434 145.836 277.659 136.375 282.879 136.731C288.098 137.117 285.963 147.764 280.239 145.807C279.705 145.629 279.468 146.489 280.002 146.667C286.616 148.921 289.581 136.88 283.264 135.871C280.18 135.367 277.392 138.274 276.917 141.15C276.443 143.998 278.371 146.785 281.336 146.874C281.9 146.934 281.9 146.044 281.336 146.014Z" fill="#E8E8E8"/>
<path d="M276.919 119.174C276.414 118.64 276.177 117.78 276.563 117.127C276.948 116.504 277.897 116.208 278.49 116.682C279.024 117.098 279.143 117.987 278.639 118.432C278.045 118.966 277.096 118.699 276.533 118.254C276.088 117.898 275.465 118.521 275.91 118.877C276.83 119.589 278.253 119.945 279.232 119.085C280.122 118.284 280.033 116.801 279.143 116.03C278.223 115.229 276.77 115.466 275.999 116.356C275.139 117.365 275.376 118.877 276.266 119.797C276.681 120.212 277.304 119.589 276.919 119.174Z" fill="#E8E8E8"/>
<path d="M190.85 141.506C190.019 136.464 192.956 130.385 198.65 130.444C201.556 130.474 204.374 131.66 207.31 131.245C209.386 130.948 211.166 129.762 212.411 128.131C213.657 126.499 214.369 124.453 214.487 122.407C214.636 119.381 213.479 116.297 214.309 113.301C214.725 111.789 215.614 110.395 217.127 109.831C218.58 109.327 220.152 109.624 221.665 109.565C223.859 109.476 225.579 108.527 226.677 106.599C228.219 103.9 227.863 100.667 228.931 97.8199C230.206 94.3796 233.795 91.4435 237.591 93.134C238.095 93.3712 238.57 92.6001 238.036 92.3629C232.875 90.0495 228.575 94.7058 227.567 99.3918C226.914 102.447 227.033 107.192 223.385 108.408C220.834 109.268 217.957 107.933 215.614 109.683C213.687 111.107 213.123 113.717 213.153 116C213.242 119.352 214.28 122.614 212.797 125.817C211.433 128.842 208.734 130.651 205.382 130.444C202.416 130.266 199.48 129.05 196.485 129.821C191.413 131.096 189.248 137.087 190.049 141.773C190.108 142.277 190.968 142.04 190.85 141.506Z" fill="#E8E8E8"/>
<path d="M228.338 120.36C227.241 117.869 228.753 115.496 231.156 114.695C232.905 114.102 234.833 114.073 236.346 112.886C237.532 111.967 237.918 110.81 237.769 109.327C237.621 107.933 237.621 106.836 238.718 105.887C239.638 105.086 240.854 104.79 242.04 104.73C245.302 104.612 249.781 106.272 252.153 103.099C253.251 101.616 252.925 99.7773 253.429 98.1164C254.111 95.8031 256.335 94.3795 258.708 94.4981C259.271 94.5278 259.271 93.6381 258.708 93.6084C256.899 93.5194 255.149 94.2016 253.903 95.5065C252.361 97.1377 252.569 98.9765 252.094 101.023C250.819 106.628 243.019 102.684 239.341 104.434C237.977 105.086 236.88 106.243 236.761 107.785C236.613 109.594 237.443 111.077 235.604 112.323C234.626 112.975 233.499 113.183 232.371 113.45C230.503 113.895 228.664 114.458 227.715 116.267C226.944 117.691 226.944 119.322 227.597 120.775C227.804 121.339 228.546 120.864 228.338 120.36Z" fill="#E8E8E8"/>
<path d="M281.188 80.8555C281.07 80.5886 280.951 80.292 280.862 79.9954C281.248 79.5505 281.603 79.1057 281.989 78.6608C282.108 78.6311 282.641 78.987 282.819 78.987C283.264 79.0463 283.65 78.9277 284.006 78.6608C285.103 77.8007 284.718 76.4364 285.044 75.2798C285.578 73.2927 287.921 74.6569 288.988 73.174C290.056 71.7208 289.67 68.6363 292.518 69.4668C293.081 69.6151 293.318 68.755 292.755 68.6067C291.124 68.1322 289.641 68.9033 289.048 70.4751C288.87 70.92 288.81 71.4242 288.632 71.8691C288.247 72.9071 287.832 73.0554 286.705 73.1147C285.874 73.174 285.222 73.1147 284.658 73.8265C284.184 74.4493 284.184 75.2501 284.095 75.9916C284.006 77.0889 284.095 78.0083 282.464 77.8897C282.137 77.86 281.87 77.5634 281.515 77.5634C279.557 77.5338 279.883 79.9361 280.358 81.0928C280.536 81.6266 281.426 81.3893 281.188 80.8555Z" fill="#E8E8E8"/>
<path d="M286.764 83.3171C286.29 82.6943 285.489 80.8851 286.883 80.4106C287.387 80.2327 288.039 80.4403 288.573 80.4403C289.048 80.4403 289.463 80.4403 289.849 80.114C291.035 79.165 290.175 77.4745 290.798 76.2881C291.806 74.3604 293.823 75.8729 295.246 74.8645C296.255 74.1527 296.522 72.7885 296.7 71.6615C296.789 71.098 295.928 70.8607 295.839 71.4242C295.632 72.7588 295.395 74.2417 293.734 74.39C292.874 74.479 292.221 74.1824 291.42 74.568C290.115 75.1908 289.7 76.3474 289.671 77.6821C289.641 78.8091 289.908 79.3726 288.01 79.4616C287.772 79.4616 287.535 79.4022 287.298 79.4022C286.616 79.4615 286.023 79.8175 285.637 80.381C284.807 81.5673 285.281 82.9315 286.112 83.9696C286.497 84.4145 287.12 83.762 286.764 83.3171Z" fill="#E8E8E8"/>
<path d="M34.6114 99.3918C37.073 96.426 40.5727 93.9941 44.6062 94.4093C48.9956 94.8541 51.1606 98.3538 51.5759 102.447C52.2877 109.238 50.6268 117.365 55.2238 123.148C57.033 125.432 59.7318 126.648 62.6383 125.936C66.138 125.105 68.8665 122.347 71.9806 120.716C75.6583 118.788 80.7298 117.75 84.0515 120.983C86.4835 123.356 87.0173 126.974 87.8181 130.118C88.5595 132.965 89.8348 136.109 92.3854 137.799C93.9277 138.807 95.6182 138.896 97.3977 138.778C99.3848 138.63 103.448 138.511 103.033 141.625C102.973 142.189 103.863 142.189 103.922 141.625C104.071 140.409 103.507 139.43 102.529 138.719C100.986 137.591 99.2068 137.769 97.3977 137.888C95.3513 138.036 93.6014 137.858 92.0296 136.405C90.606 135.1 89.7459 133.261 89.123 131.452C88.085 128.338 87.7884 124.927 86.0089 122.08C84.2591 119.263 81.234 117.899 77.9716 118.017C73.8491 118.165 70.3791 120.538 67.0871 122.733C65.5152 123.771 63.8247 124.868 61.8969 125.194C59.5836 125.58 57.5371 124.572 56.0542 122.851C53.2664 119.589 52.8215 114.933 52.6732 110.84C52.5249 107.014 53.0291 102.862 51.7538 99.1546C50.5971 95.7735 47.661 93.6678 44.1317 93.4899C40.0388 93.2823 36.4502 95.7439 33.9293 98.769C33.603 99.2139 34.2259 99.8367 34.6114 99.3918Z" fill="#E8E8E8"/>
<path d="M19.6331 145.154C24.2598 152.865 28.3823 160.843 32.0302 169.059C32.2675 169.593 33.0386 169.118 32.8013 168.614C29.1534 160.399 25.0012 152.421 20.4042 144.709C20.1076 144.205 19.3365 144.65 19.6331 145.154Z" fill="#E8E8E8"/>
<path d="M20.196 144.798C27.4029 140.32 34.8174 136.138 42.4395 132.342C42.9437 132.075 42.4989 131.304 41.9947 131.571C34.4022 135.367 26.9877 139.549 19.7511 144.027C19.2469 144.353 19.6918 145.125 20.196 144.798Z" fill="#E8E8E8"/>
<path d="M41.9055 131.956C45.6721 139.875 49.6463 147.675 53.8578 155.357C54.1247 155.861 54.8958 155.416 54.6289 154.912C50.4174 147.23 46.4136 139.43 42.6766 131.512C42.4097 130.978 41.6683 131.423 41.9055 131.956Z" fill="#E8E8E8"/>
<path d="M33.0403 169.237C40.1286 164.966 47.1279 160.577 54.0679 156.068C54.5425 155.772 54.0976 155.001 53.6231 155.297C46.6831 159.805 39.6837 164.195 32.5954 168.466C32.1209 168.762 32.5658 169.533 33.0403 169.237Z" fill="#E8E8E8"/>
<path d="M32.4768 142.188C32.2988 147.883 32.6251 153.548 33.4555 159.183C33.5445 159.746 34.4046 159.509 34.3156 158.945C33.4852 153.399 33.1886 147.794 33.3665 142.188C33.3962 141.625 32.5064 141.625 32.4768 142.188Z" fill="#E8E8E8"/>
<path d="M32.5066 141.892C36.629 145.125 40.7515 148.298 44.9333 151.442C45.3782 151.798 45.8231 151.027 45.3782 150.671C41.2557 147.586 37.1629 144.442 33.1294 141.269C32.6845 140.913 32.0617 141.536 32.5066 141.892Z" fill="#E8E8E8"/>
<path d="M34.3755 159.361C37.7862 156.306 42.2349 154.675 45.4676 151.382C45.8828 150.967 45.2304 150.344 44.8448 150.76C41.6121 154.022 37.193 155.683 33.7527 158.738C33.3078 159.094 33.9603 159.716 34.3755 159.361Z" fill="#E8E8E8"/>
<path d="M20.819 149.811C21.7681 149.336 22.7171 148.891 23.6662 148.417C24.1704 148.179 23.7255 147.408 23.2213 147.646C22.2723 148.12 21.3232 148.565 20.3741 149.039C19.8699 149.306 20.3148 150.048 20.819 149.811Z" fill="#E8E8E8"/>
<path d="M23.8749 154.853C24.6756 154.319 25.5357 153.874 26.4255 153.488C26.9593 153.281 26.722 152.421 26.1882 152.628C25.2095 153.043 24.2901 153.518 23.4003 154.081C22.9555 154.408 23.4003 155.179 23.8749 154.853Z" fill="#E8E8E8"/>
<path d="M27.2253 160.666C28.0557 160.25 28.8861 159.835 29.7165 159.45C30.2207 159.183 29.7759 158.441 29.2717 158.678C28.4412 159.094 27.6108 159.509 26.7804 159.894C26.2762 160.132 26.7211 160.903 27.2253 160.666Z" fill="#E8E8E8"/>
<path d="M28.9458 166.479C29.8652 165.678 30.8143 164.996 31.8819 164.402C32.3861 164.106 31.9413 163.364 31.4371 163.631C30.3397 164.254 29.3017 164.996 28.323 165.856C27.8781 166.241 28.5009 166.864 28.9458 166.479Z" fill="#E8E8E8"/>
<path d="M43.5975 137.799C44.2797 137.325 44.9914 136.998 45.7922 136.791C46.3557 136.642 46.1185 135.812 45.555 135.931C44.6949 136.138 43.8644 136.494 43.123 137.028C42.6781 137.354 43.123 138.125 43.5975 137.799Z" fill="#E8E8E8"/>
<path d="M46.237 142.871C47.186 142.277 48.1351 141.684 49.0545 141.061C49.529 140.765 49.0842 139.994 48.6096 140.29C47.6606 140.884 46.7115 141.477 45.7921 142.099C45.2879 142.426 45.7328 143.197 46.237 142.871Z" fill="#E8E8E8"/>
<path d="M49.2618 148.951C50.2702 148.506 51.3082 148.061 52.3166 147.616C52.8505 147.379 52.3759 146.608 51.8717 146.845C50.8634 147.29 49.8253 147.735 48.817 148.179C48.2831 148.417 48.7576 149.188 49.2618 148.951Z" fill="#E8E8E8"/>
<path d="M51.4277 152.925C52.2285 152.154 53.1182 151.501 54.097 150.938C54.6011 150.671 54.1563 149.9 53.6521 150.166C52.614 150.76 51.665 151.442 50.8049 152.272C50.3897 152.687 51.0125 153.31 51.4277 152.925Z" fill="#E8E8E8"/>
<path d="M35.5612 165.322C36.3027 166.419 36.9255 167.576 37.4001 168.792C37.6077 169.326 38.4677 169.088 38.2601 168.555C37.7559 167.25 37.1331 166.004 36.3324 164.847C36.0061 164.402 35.235 164.847 35.5612 165.322Z" fill="#E8E8E8"/>
<path d="M40.0983 162.86C40.6618 163.869 41.1957 164.847 41.7592 165.856C42.0261 166.36 42.7972 165.915 42.5303 165.411C41.9668 164.402 41.4329 163.424 40.8694 162.415C40.6025 161.911 39.8314 162.356 40.0983 162.86Z" fill="#E8E8E8"/>
<path d="M45.3464 159.094C45.9395 160.161 46.5327 161.229 47.1258 162.297C47.3928 162.801 48.1639 162.356 47.897 161.852C47.3038 160.784 46.7106 159.716 46.1175 158.649C45.8505 158.145 45.0794 158.589 45.3464 159.094Z" fill="#E8E8E8"/>
<path d="M50.0624 156.276C50.5369 157.403 51.0114 158.53 51.5156 159.627C51.7529 160.161 52.4943 159.687 52.2867 159.183C51.8122 158.056 51.3377 156.929 50.8335 155.831C50.5962 155.327 49.8251 155.772 50.0624 156.276Z" fill="#E8E8E8"/>
<path d="M23.1624 140.231C23.7259 141.15 24.2598 142.07 24.8233 142.96C25.1198 143.464 25.891 142.989 25.5944 142.515C25.0309 141.595 24.497 140.676 23.9335 139.786C23.6369 139.312 22.8658 139.756 23.1624 140.231Z" fill="#E8E8E8"/>
<path d="M28.263 137.265C28.7968 138.451 29.3306 139.638 29.8645 140.824C30.1018 141.358 30.8729 140.883 30.6356 140.379C30.1018 139.193 29.5679 138.007 29.0341 136.82C28.7671 136.286 28.0257 136.731 28.263 137.265Z" fill="#E8E8E8"/>
<path d="M32.862 134.418C33.6628 135.486 34.2856 136.642 34.7008 137.888C34.8788 138.422 35.7389 138.185 35.5609 137.651C35.116 136.316 34.4932 135.071 33.6331 133.973C33.3069 133.528 32.5358 133.944 32.862 134.418Z" fill="#E8E8E8"/>
<path d="M37.8132 132.134C38.436 133.083 39.0292 134.003 39.652 134.952C39.9486 135.426 40.7197 134.982 40.4231 134.507C39.8003 133.558 39.2071 132.639 38.5843 131.69C38.2581 131.215 37.487 131.66 37.8132 132.134Z" fill="#E8E8E8"/>
<path d="M83.9346 73.3223C81.0577 72.4326 80.9094 69.3778 82.2737 67.0941C83.6083 64.8697 86.1886 64.2766 88.2053 66.1154C89.8662 67.6576 90.0145 70.2972 88.4723 71.9877C86.93 73.7079 84.4091 73.6782 82.6296 72.3733C82.1847 72.0174 81.7399 72.7885 82.1847 73.1444C84.4388 74.8052 87.7308 74.5383 89.4213 72.1953C91.1711 69.8227 90.5483 66.5009 88.0867 64.8994C82.1551 61.0735 77.0539 72.1063 83.6973 74.1824C84.2608 74.3603 84.4981 73.5003 83.9346 73.3223Z" fill="#E8E8E8"/>
<path d="M88.7079 74.0934C86.4835 74.7755 85.9497 72.1063 86.9284 70.6827C87.7292 69.526 89.301 68.8439 90.7246 69.2295C92.0889 69.5854 93.0676 70.9793 92.7117 72.3732C92.2669 74.1231 90.4281 74.7459 88.7969 74.4789C88.2334 74.39 87.9961 75.2501 88.5596 75.339C90.7543 75.7246 93.127 74.7755 93.6015 72.4029C94.0167 70.3565 92.4152 68.488 90.4281 68.2507C88.2334 67.9838 85.831 69.5854 85.5345 71.8394C85.2675 73.7968 87.047 75.5466 89.0045 74.9238C89.5087 74.7755 89.2714 73.9154 88.7079 74.0934Z" fill="#E8E8E8"/>
<path d="M69.7861 93.4009C69.0743 94.8541 70.0827 96.3074 71.5656 96.693C72.6926 96.9895 73.879 96.7226 75.0356 96.7819C76.2813 96.8412 77.5269 97.1378 78.6539 97.642C81.1452 98.769 82.7467 100.815 82.8357 103.574C82.9247 105.887 82.2425 108.289 83.2509 110.484C85.3863 115.111 91.2586 111.581 94.2837 114.577C96.8047 117.098 95.7667 121.695 99.1477 123.623C99.6519 123.919 100.097 123.148 99.5926 122.851C96.5674 121.131 97.2792 116.653 95.1438 114.162C94.0168 112.857 92.3856 112.501 90.7248 112.382C88.708 112.263 86.0981 112.679 84.6152 110.958C82.895 108.942 83.8144 105.917 83.7255 103.544C83.6661 101.676 83.0433 99.985 81.7384 98.6504C80.5817 97.4937 79.0691 96.6929 77.4972 96.2777C76.6965 96.0701 75.8661 95.9218 75.0356 95.8922C73.9679 95.8329 69.3413 96.3667 70.5869 93.8458C70.8242 93.3416 70.0531 92.8967 69.7861 93.4009Z" fill="#E8E8E8"/>
<path d="M0.444872 253.495C5.81299 253.495 11.1514 253.495 16.5196 253.495C17.0831 253.495 17.0831 252.606 16.5196 252.606C11.1514 252.606 5.81299 252.606 0.444872 252.606C-0.148291 252.606 -0.148291 253.495 0.444872 253.495Z" fill="#E8E8E8"/>
<path d="M9.10307 273.604C19.4241 273.604 29.7155 273.604 40.0365 273.604C40.6 273.604 40.6 272.714 40.0365 272.714C29.7155 272.714 19.4241 272.714 9.10307 272.714C8.50991 272.714 8.50991 273.604 9.10307 273.604Z" fill="#E8E8E8"/>
<path d="M38.7906 268.028C48.3701 268.028 57.9794 268.028 67.559 268.028C68.1225 268.028 68.1225 267.138 67.559 267.138C57.9794 267.138 48.3701 267.138 38.7906 267.138C38.1974 267.138 38.1974 268.028 38.7906 268.028Z" fill="#E8E8E8"/>
<path d="M198.324 266.486C203.159 265.299 208.022 265.181 212.946 265.952C215.022 266.278 217.127 266.604 219.233 266.426C221.28 266.248 223.267 265.626 225.254 265.092C227.508 264.469 229.762 263.994 232.134 264.172C234.566 264.35 236.909 265.032 239.282 265.566C241.329 266.041 243.405 266.367 245.51 266.337C247.735 266.278 249.929 265.892 252.094 265.566C258.026 264.617 263.602 265.21 269.474 266.189C270.038 266.278 270.275 265.418 269.711 265.329C264.966 264.558 260.191 263.757 255.357 264.232C250.315 264.736 245.629 265.981 240.528 264.943C236.257 264.083 232.194 262.749 227.804 263.579C225.461 264.024 223.237 264.854 220.894 265.299C218.284 265.804 215.763 265.507 213.153 265.092C208.082 264.321 203.07 264.38 198.057 265.626C197.553 265.774 197.79 266.634 198.324 266.486Z" fill="#E8E8E8"/>
<path d="M243.88 257.47C253.192 256.965 262.505 256.461 271.817 255.987C276.414 255.749 280.863 255.838 285.431 256.461C287.477 256.728 289.434 256.788 291.481 256.55C293.764 256.283 296.137 255.927 298.273 257.025C298.777 257.292 299.222 256.521 298.717 256.254C295.099 254.415 290.917 256.135 287.032 255.779C284.719 255.572 282.465 255.127 280.151 255.008C277.749 254.889 275.347 254.949 272.944 255.067C263.246 255.512 253.548 256.105 243.85 256.61C243.316 256.61 243.316 257.499 243.88 257.47Z" fill="#E8E8E8"/>
<path d="M61.51 282.946C65.8994 283.361 70.3185 283.776 74.7079 283.272C76.7543 283.035 78.7117 282.59 80.6988 281.997C83.2791 281.226 85.5924 281.018 88.2616 281.493C90.308 281.849 92.3248 282.353 94.3712 282.531C96.5362 282.709 98.7013 282.59 100.866 282.382C105.404 281.938 109.942 281.166 114.45 282.175C115.013 282.293 115.251 281.433 114.687 281.315C110.357 280.366 106.027 280.988 101.667 281.433C99.5021 281.641 97.337 281.849 95.172 281.73C92.7103 281.611 90.3377 280.959 87.9354 280.573C85.9186 280.247 83.9909 280.247 82.0038 280.722C79.8684 281.255 77.8516 281.967 75.6569 282.293C70.9709 282.976 66.196 282.501 61.51 282.086C60.9168 281.997 60.9465 282.887 61.51 282.946Z" fill="#E8E8E8"/>
<path d="M108.43 43.6345C107.274 42.8337 105.702 41.5584 106.176 39.9569C106.681 38.296 107.926 39.0968 109.083 38.7113C110.625 38.2071 110.536 36.3386 110.091 35.1226C109.646 33.9363 108.697 31.0595 111.159 32.0382C111.722 32.2754 112.138 32.661 112.79 32.4534C113.383 32.2754 113.68 31.7416 113.828 31.1781C113.947 30.6739 113.858 30.1401 113.828 29.6062C113.769 29.2503 113.739 28.8648 113.739 28.5089C113.621 27.6488 114.154 27.2929 115.281 27.4412C115.311 28.0047 116.201 28.0047 116.171 27.4412C116.112 26.6107 115.489 26.0176 114.599 26.0472C113.561 26.0769 112.998 27.0853 112.879 28.0343C112.79 28.6868 113.324 30.1994 113.027 30.7332C112.671 30.9705 112.316 31.2374 111.93 31.4747C111.782 31.3857 111.633 31.2967 111.485 31.2077C111.218 31.1188 111.011 30.9408 110.744 30.8815C109.824 30.6739 109.083 31.2374 108.757 32.0678C108.193 33.4914 109.201 34.6778 109.498 36.0124C109.884 37.8512 108.49 37.6436 107.274 37.8512C106.74 37.9401 106.295 38.2071 105.939 38.5926C104.071 40.7577 106.236 43.16 108.015 44.4056C108.46 44.7319 108.905 43.9607 108.43 43.6345Z" fill="#E8E8E8"/>
<path d="M114.272 42.8041C113.293 41.6771 112.552 40.1349 114.45 39.5417C114.924 39.3934 115.458 39.4527 115.903 39.1562C116.882 38.474 116.467 37.5546 116.289 36.6056C116.2 36.0717 115.992 35.3599 116.318 34.8261C116.556 34.4405 117.416 34.2922 117.861 34.2032C118.483 34.055 119.136 33.966 119.67 33.6101C120.47 33.0466 120.767 32.0382 120.233 31.1781C119.937 30.7036 119.165 31.1485 119.462 31.623C120.352 33.0466 116.2 33.4321 115.488 34.4702C114.657 35.6862 116.407 37.8215 114.954 38.5927C114.391 38.8892 113.679 38.6816 113.145 39.0672C112.759 39.3341 112.492 39.7493 112.374 40.1942C112.048 41.4695 112.908 42.5668 113.679 43.4566C114.035 43.8718 114.657 43.249 114.272 42.8041Z" fill="#E8E8E8"/>
<path d="M79.2464 35.7751C78.4753 35.2413 78.3864 34.2922 78.6236 33.4618C78.7719 32.8983 79.4837 31.3561 80.1658 31.2967C81.2928 31.1781 81.8564 32.6017 82.1529 33.4321C82.4199 34.2329 82.5088 35.0337 82.5385 35.8641C82.5385 36.4276 83.4282 36.4276 83.4282 35.8641C83.3986 34.2032 82.3012 29.102 79.5727 30.5849C78.5346 31.1485 77.7635 32.7796 77.6449 33.9067C77.5263 34.9743 77.9415 35.9234 78.8016 36.5462C79.2464 36.8725 79.6913 36.1014 79.2464 35.7751Z" fill="#E8E8E8"/>
<path d="M78.8908 36.2496C77.8231 36.5165 76.7554 36.7835 75.6581 37.0504C75.0352 37.1987 73.9675 37.258 73.4634 37.7325C72.6033 38.5333 72.8405 40.9949 72.8405 42.0329C72.8405 42.3295 73.1371 42.5371 73.404 42.4482C73.5523 42.4185 73.7006 42.3592 73.8786 42.3295C74.6497 41.9143 75.0352 42.1812 75.0649 43.071C75.6581 43.6641 75.6581 44.02 75.0649 44.0794C74.709 44.2277 74.3531 44.287 73.9675 44.287C73.7303 44.3166 73.5227 44.4649 73.5227 44.7318C73.582 46.63 73.7303 48.4984 73.9379 50.3965C73.9972 50.96 74.8869 50.96 74.8276 50.3965C74.62 48.4984 74.4717 46.63 74.4124 44.7318C74.2641 44.8801 74.1158 45.0284 73.9675 45.1767C75.2132 45.0284 77.2003 44.5242 76.9334 42.8337C76.6368 41.0246 74.4421 41.2322 73.1964 41.5881C73.3744 41.7364 73.582 41.8847 73.7599 42.0033C73.7599 41.3212 73.7599 40.6687 73.8193 39.9865C73.9082 38.9188 73.8489 38.5333 74.8276 38.1477C76.1622 37.6139 77.7341 37.4359 79.1281 37.08C79.6916 36.9911 79.4543 36.131 78.8908 36.2496Z" fill="#E8E8E8"/>
<path d="M83.1609 36.5166C84.4066 36.4572 85.6819 36.4572 86.9275 36.6055C88.1138 36.7538 88.0545 36.9318 88.2324 37.9698C88.3511 38.6223 88.3807 39.3044 88.4401 39.9569C88.6773 42.5075 88.8553 45.0581 89.0036 47.6087C89.0332 48.1722 89.923 48.1722 89.8933 47.6087C89.7154 44.1387 89.5967 40.5797 89.0332 37.1394C88.8849 36.2793 88.7366 36.0124 87.8469 35.8641C86.3047 35.5675 84.7031 35.5675 83.1609 35.6565C82.5974 35.6565 82.5974 36.5462 83.1609 36.5166Z" fill="#E8E8E8"/>
<path d="M74.5907 51.0194C76.3406 50.7228 78.0904 50.4262 79.8106 50.1296C81.7977 49.8034 83.6958 49.9517 85.6829 49.8034C86.6023 49.7144 90.962 49.2695 89.3605 47.4604C88.9749 47.0452 88.3521 47.668 88.7376 48.0832C88.9749 48.3501 84.9414 48.9433 84.8524 48.9433C83.6068 48.973 82.3612 48.9136 81.1155 49.0619C78.8615 49.3289 76.6075 49.8034 74.3535 50.1889C73.79 50.2482 74.0272 51.1083 74.5907 51.0194Z" fill="#E8E8E8"/>
<path d="M232.134 221.82C232.045 224.935 231.956 228.049 231.867 231.192C235.812 231.459 239.727 231.697 243.671 231.964C243.671 228.76 243.671 225.557 243.671 222.354C239.816 222.176 235.99 221.998 232.134 221.82Z" fill="white" stroke="#56597A" stroke-width="2" stroke-miterlimit="10"/>
<path d="M237.266 256.432C237.8 259.872 238.037 262.719 238.156 264.765C238.542 271.557 238.245 273.129 237.652 274.375C236.199 277.429 233.559 278.705 233.796 279.12C233.974 279.387 235.279 279.09 241.092 276.036C240.736 269.274 240.41 262.541 240.054 255.779C239.135 256.016 238.215 256.224 237.266 256.432Z" fill="white" stroke="#56597A" stroke-width="2" stroke-miterlimit="10"/>
<path d="M229.584 234.633C234.626 234.662 239.668 234.722 244.71 234.751C244.146 241.513 243.612 248.246 243.049 255.008C238.659 254.652 234.24 254.326 229.851 253.97C229.732 247.534 229.643 241.098 229.584 234.633Z" fill="white" stroke="#56597A" stroke-width="2" stroke-miterlimit="10"/>
<path d="M231.629 256.194C233.231 260.079 233.765 263.431 233.943 265.685C234.209 269.007 234.387 271.557 232.786 273.248C232.193 273.9 231.214 274.523 229.316 275.798C227.625 276.925 226.825 277.34 226.884 277.459C226.973 277.637 228.604 277.281 235.722 274.76C236.197 272.358 236.582 269.273 236.493 265.655C236.375 261.8 235.752 258.508 235.07 256.046C233.943 256.105 232.786 256.135 231.629 256.194Z" fill="white" stroke="#56597A" stroke-width="2" stroke-miterlimit="10"/>
<path d="M234.209 279.387C235.098 278.646 235.929 277.845 236.73 276.985C237.649 275.976 239.013 274.434 240.437 275.769C240.466 275.531 240.496 275.294 240.526 275.057C238.42 276.095 236.344 277.133 234.238 278.141C233.823 278.349 234.031 278.972 234.476 278.972C236.463 279.001 237.708 275.531 239.755 276.184C240.288 276.362 240.526 275.502 239.992 275.324C239.102 275.057 238.42 275.294 237.679 275.828C236.818 276.451 235.603 278.082 234.505 278.082C234.594 278.349 234.653 278.646 234.742 278.912C236.848 277.874 238.924 276.836 241.03 275.828C241.297 275.709 241.327 275.324 241.119 275.116C240.318 274.375 238.895 274.108 237.886 274.582C237.145 274.909 236.67 275.769 236.136 276.332C235.336 277.192 234.505 277.963 233.615 278.734C233.141 279.12 233.764 279.773 234.209 279.387Z" fill="#56597A"/>
<path d="M237.858 274.76C238.748 274.79 239.608 274.968 240.438 275.324C240.943 275.561 241.417 274.79 240.883 274.553C239.905 274.108 238.926 273.87 237.858 273.841C237.295 273.87 237.295 274.76 237.858 274.76Z" fill="#56597A"/>
<path d="M232.992 273.722C233.674 273.9 234.267 274.256 234.742 274.79C235.128 275.205 235.75 274.582 235.365 274.167C234.772 273.544 234.03 273.099 233.2 272.892C232.696 272.714 232.458 273.574 232.992 273.722Z" fill="#56597A"/>
<path d="M228.187 277.311C229.107 276.629 230.056 276.006 231.034 275.413C231.479 275.146 231.954 274.79 232.428 274.642C233.17 274.375 233.615 274.553 234.297 274.849C234.297 274.582 234.297 274.345 234.297 274.078C233.348 274.493 232.28 274.464 231.301 274.879C230.352 275.264 229.462 276.213 228.484 276.391C228.602 276.658 228.721 276.925 228.84 277.192C230.589 276.332 232.547 276.184 234.297 275.324C234.801 275.057 234.356 274.315 233.852 274.553C232.102 275.413 230.145 275.561 228.395 276.421C227.92 276.658 228.276 277.311 228.751 277.222C229.818 277.044 230.678 276.065 231.687 275.68C232.695 275.294 233.792 275.264 234.771 274.849C235.068 274.731 235.068 274.197 234.771 274.078C233.644 273.574 233.14 273.277 232.013 273.87C230.53 274.642 229.136 275.561 227.802 276.54C227.268 276.866 227.713 277.637 228.187 277.311Z" fill="#56597A"/>
<path d="M233.261 260.732C234.002 260.465 234.744 260.495 235.426 260.851C235.93 261.118 236.375 260.346 235.871 260.08C234.981 259.605 233.973 259.516 233.024 259.872C232.49 260.08 232.727 260.94 233.261 260.732Z" fill="#56597A"/>
<path d="M234.001 263.698C234.624 263.638 235.217 263.787 235.691 264.202C236.136 264.558 236.759 263.935 236.314 263.579C235.662 263.045 234.861 262.749 234.001 262.808C233.437 262.838 233.437 263.727 234.001 263.698Z" fill="#56597A"/>
<path d="M234.326 267.405C234.89 267.346 235.424 267.553 235.75 268.028C236.046 268.502 236.818 268.057 236.521 267.583C236.076 266.841 235.216 266.397 234.356 266.515C234.119 266.545 233.911 266.693 233.911 266.96C233.881 267.168 234.089 267.435 234.326 267.405Z" fill="#56597A"/>
<path d="M238.155 260.524C238.689 260.228 239.371 260.257 239.875 260.673C240.32 261.028 240.943 260.406 240.498 260.05C239.697 259.397 238.629 259.249 237.71 259.753C237.206 260.05 237.651 260.821 238.155 260.524Z" fill="#56597A"/>
<path d="M238.656 266.13C239.131 265.922 239.665 266.011 240.05 266.367C240.466 266.752 241.118 266.13 240.673 265.744C239.991 265.121 239.042 264.973 238.182 265.388C237.678 265.596 238.152 266.367 238.656 266.13Z" fill="#56597A"/>
<path d="M238.779 270.875C239.253 270.578 239.846 270.578 240.291 270.934C240.736 271.29 241.359 270.667 240.914 270.311C240.173 269.689 239.135 269.6 238.334 270.134C237.859 270.43 238.304 271.201 238.779 270.875Z" fill="#56597A"/>
<path d="M245.422 234.722C244.829 241.543 244.236 248.364 243.643 255.186" stroke="#56597A" stroke-width="6" stroke-miterlimit="10"/>
<path d="M229.762 254.237C234.715 254.593 239.668 254.919 244.62 255.275" stroke="#56597A" stroke-width="6" stroke-miterlimit="10"/>
<path d="M244.649 222.087C244.531 225.468 244.382 228.82 244.264 232.201" stroke="#56597A" stroke-width="6" stroke-miterlimit="10"/>
<path d="M245.273 238.726C248.031 238.221 250.967 240.386 251.175 243.234C251.472 246.793 247.408 247.415 244.739 247.03C244.176 246.941 243.938 247.801 244.502 247.89C247.764 248.364 252.361 247.445 252.065 243.234C251.827 239.764 248.357 237.243 245.036 237.865C244.472 237.954 244.709 238.815 245.273 238.726Z" fill="#56597A"/>
<path d="M244.619 248.602C245.776 248.839 246.695 249.669 247.021 250.796C247.17 251.36 248.03 251.123 247.882 250.559C247.496 249.136 246.339 248.009 244.886 247.742C244.293 247.653 244.056 248.483 244.619 248.602Z" fill="#56597A"/>
<path d="M244.175 248.305C244.886 249.343 245.213 250.5 245.094 251.775C245.064 252.339 245.954 252.339 245.984 251.775C246.073 250.381 245.717 249.017 244.916 247.86C244.62 247.386 243.848 247.831 244.175 248.305Z" fill="#56597A"/>
<path d="M229.554 238.31C227.596 237.065 224.008 240.653 223.563 242.403C222.673 245.962 227.24 245.547 229.139 246.733C229.613 247.03 230.058 246.259 229.583 245.962C228.219 245.102 226.202 245.428 225.016 244.361C223.563 243.056 224.897 241.484 225.906 240.564C226.44 240.09 228.249 238.518 229.109 239.052C229.583 239.408 230.058 238.637 229.554 238.31Z" fill="#56597A"/>
<path d="M229.079 246.318C228.308 246.615 227.596 247.06 227.003 247.682C226.558 248.157 225.995 248.898 226.44 249.551C226.766 250.025 227.537 249.58 227.211 249.106C227.003 248.809 227.774 248.157 227.982 247.979C228.367 247.623 228.812 247.356 229.317 247.178C229.85 246.971 229.643 246.11 229.079 246.318Z" fill="#56597A"/>
<path d="M228.723 246.941C228.16 247.831 227.982 248.839 228.189 249.847C228.308 250.411 229.168 250.174 229.049 249.61C228.871 248.809 229.049 248.068 229.494 247.386C229.821 246.911 229.049 246.466 228.723 246.941Z" fill="#56597A"/>
<path d="M231.539 237.747C231.391 239.912 231.42 242.107 231.569 244.272C231.628 244.835 232.518 244.835 232.458 244.272C232.28 242.107 232.28 239.912 232.429 237.747C232.488 237.183 231.598 237.183 231.539 237.747Z" fill="#56597A"/>
<path d="M232.194 237.984C235.338 238.162 238.452 238.281 241.596 238.34C241.447 238.192 241.299 238.043 241.151 237.895C241.062 240.12 240.973 242.374 240.854 244.598C240.825 245.161 241.714 245.161 241.744 244.598C241.833 242.374 241.922 240.12 242.041 237.895C242.041 237.658 241.833 237.45 241.596 237.45C238.452 237.391 235.338 237.272 232.194 237.094C231.631 237.065 231.631 237.954 232.194 237.984Z" fill="#56597A"/>
<path d="M231.838 244.657C233.143 245.013 234.596 244.924 235.901 245.013C237.503 245.102 239.134 245.221 240.735 245.31C241.299 245.339 241.299 244.45 240.735 244.42C239.312 244.331 237.888 244.242 236.465 244.153C235.041 244.064 233.439 244.153 232.046 243.797C231.541 243.649 231.304 244.509 231.838 244.657Z" fill="#56597A"/>
<path d="M232.846 249.254C233.379 250.411 234.536 249.402 235.426 249.818C235.841 249.996 235.752 250.263 236.316 250.292C236.968 250.322 238.57 249.017 238.896 250.233C238.985 250.559 239.4 250.648 239.637 250.441C239.934 250.352 240.26 250.263 240.557 250.203C240.913 250.648 241.565 249.996 241.18 249.58C240.497 248.78 239.637 249.225 238.985 249.818C239.222 249.877 239.489 249.936 239.726 250.025C239.459 248.987 238.362 248.305 237.324 248.78C236.82 249.017 236.761 249.462 235.989 249.165C235.841 249.106 235.782 248.869 235.633 248.809C235.307 248.691 233.587 248.869 233.587 248.839C233.379 248.275 232.608 248.72 232.846 249.254Z" fill="#56597A"/>
<path d="M234.418 225.913C234.477 225.587 234.863 225.498 235.13 225.617C235.515 225.765 235.723 226.21 235.901 226.536C236.138 227.04 236.909 226.595 236.672 226.091C236.346 225.439 235.841 224.757 235.041 224.668C234.388 224.608 233.706 224.994 233.587 225.646C233.439 226.24 234.299 226.477 234.418 225.913Z" fill="#56597A"/>
<path d="M239.874 226.328C239.934 226.032 240.201 225.854 240.497 225.973C240.853 226.091 241.001 226.536 241.061 226.862C241.15 227.426 242.01 227.189 241.921 226.625C241.802 225.913 241.328 225.172 240.556 225.053C239.874 224.964 239.133 225.379 239.014 226.091C238.925 226.655 239.785 226.892 239.874 226.328Z" fill="#56597A"/>
<path d="M234.862 227.782C235.87 229.561 238.273 229.828 239.578 228.227C239.934 227.782 239.311 227.159 238.955 227.604C238.006 228.76 236.375 228.671 235.633 227.337C235.366 226.833 234.595 227.278 234.862 227.782Z" fill="#56597A"/>
<path d="M203.753 66.6196C200.016 65.107 197.762 61.4887 196.398 57.8704C194.945 54.1038 194.322 50.011 194.53 45.9775C194.885 38.5333 198.059 31.0001 203.931 26.2548C209.477 21.7468 217.693 20.4715 223.861 24.5643C230.297 28.8351 231.454 37.6436 231.513 44.7319C231.573 52.6209 229.734 60.8955 223.891 66.5602C223.476 66.9458 224.099 67.5983 224.514 67.1831C230.06 61.7853 232.166 54.0742 232.373 46.541C232.581 39.1561 231.691 29.8138 225.611 24.7423C219.917 19.997 211.464 20.2343 205.384 24.0898C198.652 28.3606 194.678 36.1013 193.818 43.9014C193.284 48.7357 193.877 53.7479 195.657 58.3153C197.169 62.1708 199.571 65.8484 203.546 67.45C204.05 67.6873 204.257 66.8272 203.753 66.6196Z" fill="#56597A"/>
<path d="M203.338 67.1831C202.329 68.6066 202.537 70.7124 204.02 71.7801C205.147 72.5808 206.808 72.6995 208.142 72.8774C209.744 73.1147 211.375 73.2037 213.006 73.2037C215.913 73.174 219.235 72.9664 221.933 71.8394C223.891 71.009 225.374 69.0515 224.336 66.9458C224.099 66.4416 223.327 66.8865 223.565 67.3907C225.789 71.9284 215.26 72.3139 212.977 72.3139C210.871 72.3139 208.765 72.136 206.719 71.7504C205.74 71.5725 204.643 71.3945 204.02 70.5344C203.397 69.6447 203.516 68.488 204.109 67.6576C204.435 67.1534 203.664 66.7085 203.338 67.1831Z" fill="#56597A"/>
<path d="M204.287 71.9877C204.287 73.4706 204.317 74.9831 204.495 76.466C204.584 77.1482 204.732 77.7414 205.295 78.1566C206.096 78.7497 207.431 78.7201 208.38 78.809C209.981 78.9277 211.613 78.9277 213.214 78.8684C214.727 78.809 216.239 78.6904 217.752 78.5421C218.642 78.4531 219.65 78.4828 220.332 77.8007C221.845 76.3178 221.874 73.5002 221.489 71.6318C221.37 71.0683 220.51 71.3055 220.629 71.869C220.836 72.8774 220.896 73.8858 220.688 74.9238C220.391 76.3771 219.976 77.3261 218.345 77.6227C216.447 77.9786 214.312 77.9786 212.384 78.0083C210.486 78.0379 208.35 78.1269 206.482 77.682C204.762 77.2668 205.207 73.4113 205.207 71.9877C205.177 71.4242 204.287 71.4242 204.287 71.9877Z" fill="#56597A"/>
<path d="M204.583 40.0459C208.142 42.2702 210.841 45.5326 212.353 49.4475C212.561 49.9814 213.421 49.7441 213.213 49.2102C211.612 45.0581 208.794 41.6178 205.057 39.2748C204.553 38.9485 204.108 39.7196 204.583 40.0459Z" fill="#56597A"/>
<path d="M213.064 49.4475C214.814 45.7699 217.364 42.6262 220.627 40.1942C221.072 39.868 220.627 39.0672 220.182 39.4231C216.801 41.944 214.132 45.2064 212.293 49.0027C212.056 49.5068 212.827 49.9517 213.064 49.4475Z" fill="#56597A"/>
<path d="M212.352 48.4095C212.797 54.5191 213.005 60.6287 212.916 66.7383C212.916 67.3018 213.806 67.3018 213.806 66.7383C213.895 60.6287 213.687 54.4894 213.242 48.4095C213.183 47.8164 212.293 47.8164 212.352 48.4095Z" fill="#56597A"/>
<path d="M177.624 63.3572C181.568 62.0226 185.483 60.688 189.428 59.3534C189.962 59.1754 189.724 58.3153 189.191 58.4933C185.246 59.8279 181.331 61.1625 177.387 62.4971C176.823 62.6751 177.06 63.5352 177.624 63.3572Z" fill="#56597A"/>
<path d="M182.131 57.4256C183.495 57.04 184.859 56.6248 186.223 56.2392C186.757 56.0909 186.55 55.2309 185.986 55.3791C184.622 55.7647 183.258 56.1799 181.893 56.5655C181.36 56.7434 181.567 57.6035 182.131 57.4256Z" fill="#56597A"/>
<path d="M172.255 47.5494C177.474 47.4901 182.665 47.6384 187.855 47.9646C188.418 47.9942 188.418 47.1045 187.855 47.0748C182.665 46.7486 177.445 46.63 172.255 46.6596C171.691 46.6596 171.691 47.5494 172.255 47.5494Z" fill="#56597A"/>
<path d="M183.289 43.5159C184.535 43.8421 185.81 43.9904 187.085 44.0201C187.649 44.0201 187.649 43.1303 187.085 43.1303C185.869 43.1007 184.683 42.9524 183.526 42.6558C182.963 42.5075 182.725 43.3676 183.289 43.5159Z" fill="#56597A"/>
<path d="M181.358 15.9042C186.014 19.908 190.256 24.2974 194.081 29.102C194.437 29.5469 195.06 28.9241 194.704 28.4792C190.878 23.6746 186.637 19.2555 181.981 15.2814C181.566 14.8958 180.913 15.5186 181.358 15.9042Z" fill="#56597A"/>
<path d="M194.379 24.327C195.18 25.1575 195.951 25.9879 196.752 26.848C197.137 27.2632 197.76 26.6404 197.375 26.2252C196.574 25.3947 195.803 24.5643 195.002 23.7042C194.616 23.289 193.994 23.9118 194.379 24.327Z" fill="#56597A"/>
<path d="M176.317 25.9879C177.771 26.848 179.254 27.6488 180.766 28.3902C181.27 28.6572 181.715 27.8861 181.211 27.6191C179.699 26.848 178.216 26.0472 176.762 25.2168C176.258 24.9202 175.813 25.6914 176.317 25.9879Z" fill="#56597A"/>
<path d="M227.924 19.2259C232.313 14.8365 236.703 10.4471 241.092 6.05769C241.507 5.64248 240.855 5.01966 240.469 5.43487C236.08 9.82428 231.69 14.2137 227.301 18.6031C226.886 19.0183 227.509 19.6411 227.924 19.2259Z" fill="#56597A"/>
<path d="M232.341 21.2723C233.468 20.4419 234.595 19.6411 235.722 18.8107C236.167 18.4844 235.752 17.7133 235.277 18.0396C234.15 18.87 233.023 19.6708 231.896 20.5012C231.422 20.8274 231.867 21.5986 232.341 21.2723Z" fill="#56597A"/>
<path d="M214.219 13.4129C215.109 9.11246 215.791 4.78237 216.206 0.422628C216.265 -0.140876 215.376 -0.140876 215.316 0.422628C214.901 4.6934 214.249 8.96417 213.359 13.1756C213.24 13.7391 214.1 13.9764 214.219 13.4129Z" fill="#56597A"/>
<path d="M239.162 40.6984C247.229 39.9569 255.267 39.2155 263.334 38.474C263.897 38.4147 263.897 37.5249 263.334 37.5843C255.267 38.3257 247.229 39.0672 239.162 39.8086C238.599 39.8383 238.569 40.728 239.162 40.6984Z" fill="#56597A"/>
<path d="M205.266 68.2508C210.278 69.3481 215.379 69.3185 220.362 68.1914C220.925 68.0728 220.688 67.2127 220.124 67.3314C215.29 68.4287 210.337 68.4584 205.503 67.3907C204.939 67.272 204.702 68.1321 205.266 68.2508Z" fill="#56597A"/>
<path d="M206.007 75.7839C209.833 76.2881 213.658 76.4067 217.514 76.1398C218.077 76.1101 218.077 75.2204 217.514 75.25C213.658 75.5169 209.833 75.3983 206.007 74.8941C205.443 74.8348 205.443 75.7246 206.007 75.7839Z" fill="#56597A"/>
<path d="M233.558 65.2553C239.579 69.4964 245.718 73.5892 251.946 77.5338C252.421 77.8303 252.866 77.0592 252.391 76.7626C246.163 72.8181 240.024 68.7253 234.003 64.4842C233.529 64.1579 233.084 64.9291 233.558 65.2553Z" fill="#56597A"/>
<path d="M157.78 273.87C152.145 280.781 146.539 287.662 140.904 294.572C147.518 317.824 151.255 323.933 153.479 323.607C155.081 323.37 155.852 319.9 156.712 316.015C158.847 306.316 157.572 297.983 156.267 292.792C159.826 288.818 163.356 284.814 166.914 280.84C163.86 278.527 160.835 276.213 157.78 273.87Z" fill="#56597A" stroke="#56597A" stroke-width="2" stroke-miterlimit="10"/>
<path d="M136.989 238.281C140.518 241.009 143.899 240.031 150.898 241.217C156.86 242.225 163.562 244.45 170.68 248.898C163.088 257.796 155.495 267.197 147.962 277.103C146.153 279.505 144.344 281.908 142.594 284.31C145.501 284.992 149 286.06 152.797 287.78C156.504 289.441 159.529 291.309 161.931 293C173.231 283.153 183.315 273.633 192.301 264.647C196.453 260.495 202.326 254.148 203.245 245.161C203.304 244.657 203.304 244.212 203.304 243.767C203.097 228.849 184.323 218.054 172.905 214.08C160.419 209.75 138.946 207.407 132.955 217.757C129.426 223.867 131.502 234.04 136.989 238.281Z" fill="#F78BB6"/>
<path opacity="0.26" d="M158.908 223.363C158.7 226.18 158.196 229.532 157.158 233.239C156.417 235.879 155.527 238.222 154.637 240.209C153.658 240.594 152.709 240.98 151.731 241.365C158.107 243.886 164.513 246.407 170.89 248.928C166.144 254.356 161.37 260.05 156.565 265.982C151.612 272.091 146.896 278.082 142.418 283.984C145.591 285.022 148.735 286.06 151.909 287.068C163.268 274.553 174.627 262.007 185.986 249.492C187.172 246.081 187.113 243.412 186.757 241.543C185.126 232.409 173.945 224.964 158.908 223.363Z" fill="#6D6C6C"/>
<path opacity="0.23" d="M170.83 248.869C171.868 250.441 172.876 252.042 173.914 253.614C165.076 264.261 156.238 274.879 147.4 285.526C145.828 285.111 144.226 284.666 142.654 284.251C148.319 276.48 154.429 268.502 161.042 260.465C164.334 256.461 167.597 252.606 170.83 248.869Z" fill="#6D6C6C"/>
<path d="M141.32 262.6C150.069 264.202 158.848 265.774 167.597 267.375C177.71 289.441 178.837 296.559 176.939 297.775C175.575 298.635 172.728 296.5 169.554 294.097C161.606 288.077 157.187 280.899 154.785 276.065C149.506 275.353 144.226 274.612 138.947 273.9C139.718 270.134 140.519 266.367 141.32 262.6Z" fill="#56597A" stroke="#56597A" stroke-width="2" stroke-miterlimit="10"/>
<path d="M123.289 213.457C107.333 218.143 97.6047 227.871 91.3468 234.277C82.8943 242.967 72.5139 253.614 75.5094 261.473C77.0516 265.477 81.7376 267.939 103.566 271.735C120.056 274.612 134.351 276.154 145.503 277.014C146.896 271.913 148.29 266.842 149.655 261.74C138.444 258.122 127.263 254.533 116.052 250.915C122.933 249.462 130.169 247.742 137.702 245.636C143.427 244.034 148.884 242.374 154.074 240.624C158.878 230.926 159.916 220.456 154.904 214.525C147.905 206.22 132.216 210.817 123.289 213.457Z" fill="#F78BB6"/>
<path opacity="0.29" d="M158.79 223.719C158.641 226.655 158.137 230.421 156.773 234.573C155.942 237.094 154.993 239.289 154.044 241.098C153.243 241.158 152.443 241.247 151.642 241.306C144.88 243.53 137.673 245.636 130.051 247.593C125.128 248.869 120.323 249.966 115.667 250.974C126.907 254.504 138.147 258.003 149.388 261.533C149.151 262.749 148.854 264.024 148.498 265.359C148.083 266.901 147.608 268.324 147.164 269.629C131.652 265.804 116.141 261.978 100.63 258.152C99.9182 257.292 97.5752 254.178 97.9311 250.055C98.3166 245.577 102.587 242.403 108.045 239.497C123.823 231.133 150.278 225.468 158.79 223.719Z" fill="#6D6C6C"/>
<path opacity="0.24" d="M107.689 251.597C110.507 251.39 113.354 251.182 116.172 250.945C127.234 254.622 138.297 258.33 149.359 262.007C148.885 263.757 148.41 265.537 147.936 267.286C134.53 262.037 121.095 256.817 107.689 251.597Z" fill="#6D6C6C"/>
<path d="M119.107 146.252C123.497 143.671 131.119 139.994 141.262 138.926C156.803 137.295 168.725 142.871 173.441 145.392C172.581 157.047 171.246 166.36 170.179 172.766C168.903 180.418 167.865 184.659 167.391 191.688C166.798 200.496 167.539 207.733 168.221 212.478C163.061 214.08 155.261 215.83 145.651 215.622C136.398 215.414 128.924 213.398 123.912 211.648C125.247 201.03 124.802 192.607 124.149 186.883C123.408 180.507 122.399 177.393 121.183 169.682C119.612 159.716 119.196 151.56 119.107 146.252Z" fill="white" stroke="#56597A" stroke-miterlimit="10"/>
<path opacity="0.14" d="M151.197 142.455C151.819 144.709 152.531 147.823 153.006 151.56C153.332 154.081 154.667 165.5 150.514 180.566C147.964 189.849 145.265 199.666 136.427 207.733C133.58 210.343 130.821 212.093 128.805 213.19C133.283 214.347 139.126 215.444 146.036 215.503C155.082 215.592 162.556 213.961 167.746 212.36C167.449 210.135 167.064 206.784 166.915 202.75C166.797 199.221 166.797 193.586 169.229 177.719C171.156 165.233 172.521 159.865 173.203 148.565C173.292 147.26 173.322 146.163 173.381 145.421C171.216 144.146 168.398 142.752 164.928 141.625C161.725 140.587 158.848 140.053 156.476 139.816C154.756 140.676 152.976 141.566 151.197 142.455Z" fill="#6D6C6C"/>
<path opacity="0.17" d="M172.522 150.255C170.861 159.657 168.667 167.25 166.946 172.529C161.904 187.951 158.375 198.331 148.855 205.924C142.953 210.639 136.814 212.626 132.869 213.576C136.873 214.703 142.538 215.8 149.389 215.652C157.278 215.474 163.654 213.694 167.836 212.182C167.273 208.563 166.62 203.136 166.798 196.522C167.006 187.951 168.4 182.79 169.942 173.389C170.802 167.872 171.899 159.983 172.522 150.255Z" fill="#6D6C6C"/>
<path d="M118.93 146.103C115.074 148.773 110.121 152.984 105.791 159.242C96.0335 173.418 96.3004 188.455 96.686 194.001C98.4654 198.776 101.52 205.034 106.859 211.173C109.973 214.762 114.54 219.922 122.34 223.244C124.95 224.371 127.234 224.994 128.895 225.35C130.318 224.075 131.712 222.799 133.136 221.524C128.568 216.185 123.971 210.58 119.374 204.797C115.845 200.378 112.464 195.988 109.202 191.658C109.32 188.01 110.091 181.397 114.066 174.486C116.32 170.571 118.959 167.724 121.065 165.796C120.353 159.242 119.641 152.687 118.93 146.103Z" fill="white" stroke="#56597A" stroke-miterlimit="10"/>
<path opacity="0.13" d="M119.491 152.717C110.95 162.356 106.887 171.491 104.87 177.244C101.341 187.209 102.082 192.429 102.616 194.921C103.061 196.878 104.039 200.229 107.628 205.331C110.742 209.75 117.297 217.668 129.783 224.193C130.88 223.125 131.977 222.087 133.075 221.02C129.545 217.046 125.986 212.864 122.398 208.504C117.682 202.78 113.293 197.145 109.23 191.629C109.348 188.633 109.852 184.451 111.602 179.765C114.242 172.736 118.394 168.11 120.974 165.648C120.44 161.348 119.966 157.047 119.491 152.717Z" fill="#6D6C6C"/>
<path opacity="0.16" d="M109.201 192.014C109.735 195.484 110.832 199.903 113.146 204.678C118.247 215.058 126.225 220.782 130.288 223.274C131.089 222.562 131.86 221.88 132.661 221.168C124.831 211.44 117.031 201.712 109.201 192.014Z" fill="#6D6C6C"/>
<path d="M173.888 145.57C178.218 148.209 183.794 152.332 188.628 158.471C199.601 172.38 199.275 187.15 198.86 192.607C196.843 197.293 193.432 203.433 187.441 209.483C183.942 212.982 178.811 218.054 170.062 221.346C167.126 222.443 164.545 223.066 162.677 223.422C161.105 222.176 159.504 220.931 157.932 219.685C163.033 214.436 168.223 208.949 173.384 203.255C177.328 198.895 181.124 194.594 184.802 190.353C184.654 186.794 183.823 180.299 179.345 173.478C176.794 169.622 173.858 166.834 171.485 164.936C172.316 158.471 173.117 152.035 173.888 145.57Z" fill="white" stroke="#56597A" stroke-miterlimit="10"/>
<path opacity="0.16" d="M173.678 152.776C177.444 156.721 182.575 163.038 186.579 171.847C188.477 176.028 191.562 182.82 191.621 189.226C191.829 208.712 164.247 222.117 162.645 222.888C161.073 221.88 159.531 220.901 157.959 219.893C166.886 210.106 175.784 200.318 184.711 190.531C184.533 187.328 183.791 181.367 180.232 175.02C177.296 169.8 173.648 166.419 171.246 164.551C172.076 160.636 172.877 156.721 173.678 152.776Z" fill="#6D6C6C"/>
<path opacity="0.12" d="M185.008 190.62C184.563 193.2 183.821 196.018 182.665 198.925C177.445 212.093 166.887 219.3 161.548 222.384C160.273 221.554 159.027 220.723 157.752 219.893C166.827 210.135 175.903 200.378 185.008 190.62Z" fill="#6D6C6C"/>
<path d="M180.707 192.815H107.777V238.992H180.707V192.815Z" fill="white" stroke="#56597A" stroke-miterlimit="10"/>
<path d="M143.189 220.308C139.333 220.782 137.465 216.096 138.473 212.982C139.452 209.898 143.1 208.445 146.065 209.512C149.002 210.58 150.425 214.169 149.387 217.045C148.231 220.249 144.197 221.553 141.231 220.13C140.727 219.893 140.253 220.664 140.786 220.901C143.426 222.176 146.659 221.702 148.764 219.626C150.811 217.579 151.107 214.347 149.832 211.826C146.926 206.072 137.939 207.911 137.316 214.228C136.99 217.609 139.422 221.672 143.189 221.227C143.752 221.138 143.752 220.249 143.189 220.308Z" fill="#56597A"/>
<path opacity="0.14" d="M135.151 192.696C145.027 196.136 151.76 204.945 151.967 214.406C152.234 226.269 142.269 237.421 128.686 238.548C145.976 238.696 163.267 238.844 180.587 238.992C180.528 223.511 180.498 208.029 180.439 192.577C165.343 192.577 150.247 192.637 135.151 192.696Z" fill="#6D6C6C"/>
<path opacity="0.26" d="M180.59 192.548C180.323 201.979 178.454 209.334 176.882 214.169C174.569 221.198 172.908 226.328 168.133 230.866C161.638 237.094 153.541 238.251 149.982 238.548C160.096 238.637 170.209 238.726 180.323 238.844C180.352 230.036 180.412 221.227 180.471 212.389C180.471 205.775 180.53 199.162 180.59 192.548Z" fill="#6D6C6C"/>
<path d="M142.092 122.318C140.461 124.305 142.033 126.737 141.736 133.232C141.588 136.464 141.054 139.074 140.639 140.824C142.033 141.477 144.494 142.396 147.668 142.485C151.583 142.574 154.548 141.358 156.002 140.646C155.349 139.341 154.489 137.325 153.955 134.715C152.621 128.071 154.993 124.957 153.036 122.495C150.752 119.648 144.287 119.619 142.092 122.318Z" fill="white" stroke="#56597A" stroke-miterlimit="10"/>
<path d="M131.74 93.7864C129.872 98.5911 130.584 102.921 130.999 104.79C130.821 104.819 127.351 105.561 126.402 108.23C125.453 110.929 127.41 114.755 131.503 116C132.986 119.619 136.575 126.618 144.137 130.444C145.413 131.067 146.629 131.571 147.845 131.927C148.942 131.512 150.425 130.859 152.116 129.88C157.395 126.826 160.331 123.029 161.013 122.11C162.259 120.449 163.949 117.78 165.135 114.102C165.788 114.221 166.945 114.28 168.072 113.717C170.622 112.412 171.897 108.349 170.118 105.709C168.635 103.514 165.758 103.425 165.402 103.425C165.788 101.883 166.974 96.337 163.979 90.8503C160.538 84.5331 153.154 81.2114 146.214 82.1605C135.952 83.4951 131.918 93.3119 131.74 93.7864Z" fill="white" stroke="#56597A" stroke-miterlimit="10"/>
<path d="M141.708 130.177C143.517 131.245 145.504 132.905 147.728 132.728C149.567 132.579 151.613 131.512 153.007 130.385C153.452 130.029 152.829 129.406 152.385 129.762C151.08 130.8 148.974 131.897 147.254 131.867C145.445 131.838 143.606 130.325 142.123 129.406C141.678 129.109 141.233 129.88 141.708 130.177Z" fill="#56597A"/>
<path d="M141.586 130.562C143.277 132.016 145.204 133.647 147.577 133.528C149.89 133.41 152.055 131.867 153.568 130.207C153.954 129.791 153.331 129.169 152.945 129.584C151.64 131.007 149.801 132.401 147.785 132.609C145.56 132.816 143.781 131.304 142.209 129.94C141.794 129.554 141.171 130.177 141.586 130.562Z" fill="#56597A"/>
<path d="M142.715 130.74C142.715 130.711 142.715 130.711 142.715 130.74C142.537 130.473 142.211 130.414 142.003 130.622C142.003 130.622 142.003 130.622 141.973 130.651C141.795 130.8 141.795 131.126 141.973 131.274C145.236 134.388 151.227 135.397 153.57 130.622C153.807 130.118 153.065 129.643 152.799 130.177C150.722 134.448 145.473 133.41 142.626 130.651C142.626 130.859 142.626 131.067 142.626 131.274C142.626 131.274 142.626 131.274 142.655 131.245C142.418 131.215 142.181 131.185 141.944 131.156V131.185C142.24 131.66 143.011 131.215 142.715 130.74Z" fill="#56597A"/>
<path d="M146.275 103.307C145.889 108.111 146.097 112.886 146.868 117.632C146.898 117.869 147.194 118.017 147.402 117.928C148.559 117.543 149.389 116.86 150.012 115.822C150.308 115.318 149.537 114.873 149.241 115.378C148.737 116.238 148.114 116.742 147.165 117.068C147.343 117.157 147.521 117.276 147.699 117.365C146.927 112.708 146.749 107.993 147.135 103.277C147.224 102.714 146.334 102.714 146.275 103.307Z" fill="#56597A"/>
<path d="M140.994 108.022C141.053 108.289 141.498 109.95 140.994 110.217C140.49 110.484 139.066 109.416 138.621 108.022C138.265 106.836 138.562 105.353 139.126 105.234C139.719 105.086 140.638 106.717 140.994 108.022Z" fill="#56597A" stroke="#56597A" stroke-miterlimit="10"/>
<path d="M156.301 108.022C156.36 108.289 156.805 109.95 156.301 110.217C155.796 110.484 154.373 109.416 153.928 108.022C153.572 106.836 153.869 105.353 154.432 105.234C155.025 105.086 155.945 106.717 156.301 108.022Z" fill="#56597A" stroke="#56597A" stroke-miterlimit="10"/>
<path d="M145.207 121.546C148.825 123.089 152.117 120.924 154.786 118.581C155.231 118.195 154.579 117.572 154.164 117.958C151.85 119.974 148.884 122.14 145.681 120.775C145.118 120.568 144.673 121.339 145.207 121.546Z" fill="#56597A"/>
<path d="M155.645 112.738C156.209 112.738 156.209 111.848 155.645 111.848C155.082 111.848 155.082 112.738 155.645 112.738Z" fill="#56597A"/>
<path d="M158.938 111.077C158.968 111.047 158.997 111.018 159.027 110.988C159.205 110.81 159.205 110.543 159.027 110.365C158.849 110.187 158.582 110.187 158.404 110.365C158.374 110.395 158.345 110.425 158.315 110.454C158.137 110.632 158.137 110.899 158.315 111.077C158.493 111.255 158.76 111.255 158.938 111.077Z" fill="#56597A"/>
<path d="M157.959 113.242C157.988 113.242 158.018 113.242 158.048 113.242C158.285 113.242 158.492 113.035 158.492 112.797C158.492 112.56 158.285 112.352 158.048 112.352C158.018 112.352 157.988 112.352 157.959 112.352C157.721 112.352 157.514 112.56 157.514 112.797C157.514 113.035 157.692 113.242 157.959 113.242Z" fill="#56597A"/>
<path d="M137.496 102.713C138.623 101.764 140.284 101.735 141.411 102.654C141.856 103.01 142.479 102.387 142.034 102.031C140.492 100.786 138.356 100.786 136.844 102.091C136.429 102.447 137.081 103.069 137.496 102.713Z" fill="#56597A"/>
<path d="M151.971 102.387C153.246 101.26 155.056 101.053 156.568 101.853C157.072 102.12 157.517 101.349 157.013 101.082C155.145 100.074 152.92 100.341 151.348 101.764C150.903 102.15 151.526 102.773 151.971 102.387Z" fill="#56597A"/>
<path d="M137.733 112.649C138.297 112.649 138.297 111.759 137.733 111.759C137.17 111.759 137.17 112.649 137.733 112.649Z" fill="#56597A"/>
<path d="M140.878 112.234C141.441 112.234 141.441 111.344 140.878 111.344C140.314 111.344 140.314 112.234 140.878 112.234Z" fill="#56597A"/>
<path d="M139.304 112.916C139.275 112.946 139.245 112.975 139.215 113.005C139.038 113.183 139.038 113.45 139.215 113.628C139.393 113.806 139.66 113.806 139.838 113.628C139.868 113.598 139.898 113.568 139.927 113.539C140.105 113.361 140.105 113.094 139.927 112.916C139.749 112.738 139.482 112.738 139.304 112.916Z" fill="#56597A"/>
<path d="M136.576 84.1474C134.797 85.2448 130.911 87.6471 128.272 92.5703C125.632 97.4639 125.662 102.091 125.78 104.078C121.45 111.878 119.493 118.758 118.544 123.444C117.002 130.889 117.832 133.617 118.9 135.426C121.51 139.875 126.759 140.972 128.034 141.239C134.589 142.633 139.809 139.282 140.995 138.511C141.321 137.532 141.648 136.316 141.825 134.952C142.152 132.609 141.974 130.592 141.707 129.139C140.224 127.923 138.504 126.292 136.843 124.156C134.322 120.894 132.898 117.691 132.098 115.377C129.488 115.111 127.53 113.331 127.352 111.344C127.174 109.475 128.479 107.073 130.2 107.073C131.475 107.073 132.394 108.378 132.572 108.615C133.551 108.052 134.915 107.073 136.131 105.531C137.881 103.307 138.178 101.319 138.978 99.2434C139.749 97.2267 141.232 94.4388 144.435 91.5323C147.52 92.6297 149.981 93.6974 151.672 94.4981C157.099 97.0191 160.184 98.502 162.586 101.735C163.921 103.514 164.603 105.264 164.959 106.361C167.717 104.256 168.844 104.819 169.081 104.938C170.831 105.917 170.772 111.285 168.043 112.768C167.005 113.331 165.819 113.183 165.077 113.005C164.217 116 162.319 120.894 157.96 125.224C156.506 126.677 155.023 127.804 153.689 128.664C153.57 129.762 153.511 131.274 153.807 133.054C154.074 134.685 154.549 136.02 154.994 136.969C162.201 141.714 171.157 140.854 176.021 135.753C180.351 131.185 180.351 124.275 178.72 119.559C177.237 115.259 174.36 112.679 172.937 111.552C173.322 109.891 175.458 100.044 169.259 90.9985C167.658 88.6555 163.179 82.9908 155.112 81.0333C146.571 78.9573 139.542 82.3383 136.576 84.1474Z" fill="#56597A"/>
<path opacity="0.17" d="M155.378 96.337C158.73 100.548 159.619 104.434 159.916 106.45C161.132 114.933 156.209 121.813 153.717 125.343C151.671 128.22 149.565 130.266 148.053 131.601C149.358 135.1 150.633 138.57 151.938 142.07C153.273 141.625 154.607 141.18 155.942 140.735C155.319 139.638 154.667 138.274 154.162 136.613C153.243 133.647 153.184 131.037 153.273 129.258C154.904 128.101 156.802 126.529 158.641 124.453C162.318 120.301 164.157 116.03 165.106 113.153C165.699 113.272 166.975 113.42 168.191 112.738C170.741 111.285 170.326 107.666 170.296 107.429C170.207 106.658 170.029 105.412 169.14 104.908C168.102 104.345 166.381 104.879 165.017 106.48C164.602 105.027 163.416 101.675 160.213 99.0063C158.433 97.5234 156.624 96.7522 155.378 96.337Z" fill="#6D6C6C"/>
<path opacity="0.19" d="M146.69 103.574C146.512 103.544 145.919 106.124 144.109 117.513C145.147 117.513 146.185 117.513 147.223 117.513C147.016 116 146.779 113.806 146.66 111.136C146.512 106.569 146.868 103.603 146.69 103.574Z" fill="#6D6C6C"/>
<path opacity="0.54" d="M172.758 111.848C172.254 112.145 174.152 114.695 173.885 118.492C173.796 119.678 173.618 122.377 171.482 124.186C171.334 124.305 168.161 126.915 165.017 125.254C163.149 124.275 162.021 122.199 162.081 119.945C161.191 121.606 159.738 123.8 157.454 125.936C156.031 127.27 154.637 128.249 153.421 128.991C153.332 130.296 153.332 132.075 153.806 134.092C154.073 135.189 154.399 136.138 154.726 136.909C155.645 137.502 157.009 138.303 158.789 138.926C159.916 139.312 166.114 141.477 172.165 138.481C173.232 137.947 175.605 136.731 177.325 134.121C177.533 133.795 178.304 132.639 178.867 130.681C180.884 123.978 177.918 117.928 177.651 117.424C176.02 114.132 173.381 111.492 172.758 111.848Z" fill="#2A2D4A"/>
<path opacity="0.35" d="M132.067 115.496C131.8 115.526 132.394 117.958 131.741 120.36C131.267 122.14 129.754 125.046 127.174 125.639C124.475 126.232 121.123 124.245 119.581 120.538C118.869 122.169 117.92 124.779 117.772 128.101C117.683 130.266 117.564 132.579 118.632 134.863C121.034 139.964 128.093 141.951 133.343 141.477C136.842 141.15 139.482 139.786 140.905 138.867C141.261 137.858 141.617 136.642 141.854 135.248C142.24 132.846 142.151 130.74 141.943 129.198C139.6 127.508 137.999 125.758 136.991 124.483C135.567 122.673 133.639 120.241 132.66 116.86C132.512 116.475 132.245 115.467 132.067 115.496Z" fill="#2A2D4A"/>
</svg>
