<svg width="178" height="48" viewBox="0 0 178 48" fill="none" xmlns="http://www.w3.org/2000/svg">
<path d="M73.4535 25.288H77.3895V28.904H73.4535V41H68.6215V28.904H65.6455V25.288H68.6215C68.6642 23.0693 69.3042 21.4053 70.5415 20.296C71.8002 19.1653 73.7095 18.5253 76.2695 18.376L78.0295 18.28L78.3175 21.832L76.8135 21.896C75.5762 21.9387 74.7015 22.1733 74.1895 22.6C73.6988 23.0053 73.4535 23.688 73.4535 24.648V25.288Z" fill="#56597A"/>
<path d="M94.0607 25.288V41H89.3568V38.76C88.8661 39.5707 88.2154 40.1893 87.4047 40.616C86.6154 41.0427 85.7194 41.256 84.7168 41.256C82.7327 41.256 81.2501 40.712 80.2687 39.624C79.3087 38.5147 78.8288 36.8507 78.8288 34.632V25.288H83.6608V34.728C83.6608 35.6667 83.8527 36.36 84.2367 36.808C84.6421 37.256 85.2501 37.48 86.0607 37.48C86.9994 37.48 87.7568 37.16 88.3327 36.52C88.9301 35.88 89.2288 35.0373 89.2288 33.992V25.288H94.0607Z" fill="#56597A"/>
<path d="M107.145 24.904C109.022 24.904 110.419 25.4587 111.337 26.568C112.254 27.656 112.713 29.3093 112.713 31.528V41H107.881V31.752C107.881 30.6853 107.678 29.9067 107.273 29.416C106.889 28.9253 106.281 28.68 105.449 28.68C104.446 28.68 103.635 29 103.017 29.64C102.419 30.28 102.121 31.1333 102.121 32.2V41H97.2885V25.288H101.993V27.528C102.547 26.6747 103.262 26.024 104.137 25.576C105.033 25.128 106.035 24.904 107.145 24.904Z" fill="#56597A"/>
<path d="M131.744 18.44V41H126.944V38.664C126.474 39.4747 125.802 40.1147 124.928 40.584C124.074 41.032 123.104 41.256 122.016 41.256C120.672 41.256 119.466 40.9147 118.4 40.232C117.354 39.528 116.533 38.5573 115.936 37.32C115.36 36.0613 115.072 34.6213 115.072 33C115.072 31.3787 115.36 29.96 115.936 28.744C116.533 27.5067 117.354 26.5573 118.4 25.896C119.445 25.2347 120.65 24.904 122.016 24.904C123.082 24.904 124.042 25.128 124.896 25.576C125.77 26.024 126.442 26.6533 126.912 27.464V18.44H131.744ZM123.424 37.576C124.554 37.576 125.418 37.192 126.016 36.424C126.634 35.6347 126.944 34.5147 126.944 33.064C126.944 31.6133 126.634 30.504 126.016 29.736C125.418 28.968 124.554 28.584 123.424 28.584C122.293 28.584 121.418 28.968 120.8 29.736C120.181 30.4827 119.872 31.5707 119.872 33C119.872 34.4507 120.181 35.5813 120.8 36.392C121.418 37.1813 122.293 37.576 123.424 37.576Z" fill="#56597A"/>
<path d="M134.985 41V25.288H139.817V41H134.985Z" fill="#56597A"/>
<path d="M152.892 24.904C154.769 24.904 156.167 25.4587 157.084 26.568C158.001 27.656 158.46 29.3093 158.46 31.528V41H153.628V31.752C153.628 30.6853 153.425 29.9067 153.02 29.416C152.636 28.9253 152.028 28.68 151.196 28.68C150.193 28.68 149.383 29 148.764 29.64C148.167 30.28 147.868 31.1333 147.868 32.2V41H143.036V25.288H147.74V27.528C148.295 26.6747 149.009 26.024 149.884 25.576C150.78 25.128 151.783 24.904 152.892 24.904Z" fill="#56597A"/>
<path d="M177.619 25.288V39.304C177.619 41.8427 176.894 43.7627 175.443 45.064C173.993 46.3653 171.849 47.016 169.011 47.016C167.603 47.016 166.249 46.8453 164.947 46.504C163.667 46.1627 162.537 45.6827 161.555 45.064L162.835 41.736C164.862 42.8453 166.878 43.4 168.883 43.4C171.529 43.4 172.851 42.152 172.851 39.656V37.928C172.403 38.7387 171.731 39.3787 170.835 39.848C169.939 40.3173 168.937 40.552 167.827 40.552C166.462 40.552 165.246 40.232 164.179 39.592C163.134 38.952 162.313 38.0453 161.715 36.872C161.118 35.6773 160.819 34.3013 160.819 32.744C160.819 31.1867 161.118 29.8213 161.715 28.648C162.313 27.4533 163.134 26.536 164.179 25.896C165.246 25.2347 166.462 24.904 167.827 24.904C168.915 24.904 169.897 25.1387 170.771 25.608C171.667 26.056 172.35 26.6853 172.819 27.496V25.288H177.619ZM169.235 36.872C170.366 36.872 171.241 36.5093 171.859 35.784C172.499 35.0587 172.819 34.0453 172.819 32.744C172.819 31.4427 172.499 30.4293 171.859 29.704C171.241 28.9573 170.366 28.584 169.235 28.584C168.105 28.584 167.219 28.9573 166.579 29.704C165.939 30.4293 165.619 31.4427 165.619 32.744C165.619 34.024 165.939 35.0373 166.579 35.784C167.219 36.5093 168.105 36.872 169.235 36.872Z" fill="#56597A"/>
<path d="M11.832 41.288C9.54933 41.288 7.55467 40.808 5.848 39.848C4.16267 38.888 2.86133 37.5333 1.944 35.784C1.048 34.0347 0.599998 32.008 0.599998 29.704C0.599998 27.4 1.048 25.3733 1.944 23.624C2.86133 21.8747 4.16267 20.5307 5.848 19.592C7.55467 18.632 9.54933 18.152 11.832 18.152C13.3253 18.152 14.7547 18.3867 16.12 18.856C17.4853 19.304 18.6053 19.9333 19.48 20.744L17.88 24.296C16.8987 23.5493 15.9173 23.0053 14.936 22.664C13.976 22.3227 12.9733 22.152 11.928 22.152C9.92266 22.152 8.376 22.792 7.288 24.072C6.22133 25.352 5.688 27.2293 5.688 29.704C5.688 32.1787 6.22133 34.0667 7.288 35.368C8.376 36.648 9.92266 37.288 11.928 37.288C12.9733 37.288 13.976 37.1173 14.936 36.776C15.9173 36.4347 16.8987 35.8907 17.88 35.144L19.48 38.696C18.6053 39.5067 17.4853 40.1467 16.12 40.616C14.7547 41.064 13.3253 41.288 11.832 41.288Z" fill="#F78BB6"/>
<path d="M28.727 24.904C31.0737 24.904 32.8017 25.4587 33.911 26.568C35.0417 27.6773 35.607 29.3947 35.607 31.72V41H31.031V38.664C30.711 39.4747 30.1777 40.1147 29.431 40.584C28.6843 41.032 27.8097 41.256 26.807 41.256C25.7403 41.256 24.7697 41.0427 23.895 40.616C23.0417 40.1893 22.359 39.592 21.847 38.824C21.3563 38.056 21.111 37.2027 21.111 36.264C21.111 35.112 21.399 34.2053 21.975 33.544C22.5723 32.8827 23.5217 32.4027 24.823 32.104C26.1243 31.8053 27.9057 31.656 30.167 31.656H30.999V31.08C30.999 30.1413 30.7963 29.48 30.391 29.096C29.9857 28.712 29.2817 28.52 28.279 28.52C27.511 28.52 26.6577 28.6587 25.719 28.936C24.7803 29.2133 23.8843 29.5973 23.031 30.088L21.751 26.856C22.647 26.3013 23.7457 25.8427 25.047 25.48C26.3697 25.096 27.5963 24.904 28.727 24.904ZM27.863 37.928C28.8017 37.928 29.559 37.6187 30.135 37C30.711 36.36 30.999 35.5387 30.999 34.536V33.992H30.455C28.727 33.992 27.511 34.1307 26.807 34.408C26.1243 34.6853 25.783 35.1867 25.783 35.912C25.783 36.488 25.975 36.968 26.359 37.352C26.7643 37.736 27.2657 37.928 27.863 37.928Z" fill="#F78BB6"/>
<path d="M49.9718 28.872L47.2518 29.16C45.9078 29.288 44.9584 29.672 44.4038 30.312C43.8491 30.9307 43.5718 31.7627 43.5718 32.808V41H38.7397V25.288H43.3798V27.944C44.1691 26.1307 45.8011 25.1387 48.2757 24.968L49.6838 24.872L49.9718 28.872Z" fill="#F78BB6"/>
<path d="M64.935 34.056H54.695C54.8443 35.3147 55.2497 36.232 55.911 36.808C56.5937 37.3627 57.5537 37.64 58.791 37.64C59.6017 37.64 60.4017 37.512 61.191 37.256C62.0017 36.9787 62.7377 36.5947 63.399 36.104L64.679 39.336C63.911 39.9333 62.9723 40.4027 61.863 40.744C60.775 41.0853 59.6763 41.256 58.567 41.256C55.9217 41.256 53.831 40.5307 52.295 39.08C50.7803 37.608 50.023 35.6133 50.023 33.096C50.023 31.496 50.3537 30.0773 51.015 28.84C51.6763 27.6027 52.5937 26.6427 53.767 25.96C54.9403 25.256 56.2737 24.904 57.767 24.904C59.9643 24.904 61.703 25.6187 62.983 27.048C64.2843 28.4773 64.935 30.4187 64.935 32.872V34.056ZM57.895 28.232C56.9777 28.232 56.2417 28.5307 55.687 29.128C55.1537 29.704 54.823 30.5467 54.695 31.656H60.871C60.807 30.5253 60.519 29.672 60.007 29.096C59.5163 28.52 58.8123 28.232 57.895 28.232Z" fill="#F78BB6"/>
<path d="M155.24 11.2483C156.366 10.1225 156.998 8.59552 156.998 7.00334C156.998 5.41115 156.366 3.88418 155.24 2.75834C154.114 1.63249 152.587 1 150.995 1C149.403 1 147.876 1.63249 146.75 2.75834L140 9.50834V18.0083H148.5L155.24 11.2483Z" stroke="#F78BB6" stroke-width="2" stroke-linecap="round" stroke-linejoin="round"/>
<path d="M151 7.00833L137 21.0083" stroke="#F78BB6" stroke-width="2" stroke-linecap="round" stroke-linejoin="round"/>
<path d="M152.5 14.0083H144" stroke="#F78BB6" stroke-width="2" stroke-linecap="round" stroke-linejoin="round"/>
</svg>
