<svg width="1875" height="402" viewBox="0 0 1875 402" fill="none" xmlns="http://www.w3.org/2000/svg">
<path d="M404 41.5784C145.344 65.8064 40.39 285.578 0 401.578H1740C1647.91 133.578 1449.19 53.578 1265.01 53.578C1080.84 53.578 1056.6 253.578 882.117 253.578C707.632 253.578 692.248 14.5785 404 41.5784Z" fill="#FEF2F6"/>
<path d="M460 1.57843C167.886 14.3185 73.0736 165.883 34 321.078C26.7208 349.99 20 400.717 20 400.717H1874V395.721C1874 221.368 1559.42 4.05131 1373.95 4.05131C1169.69 4.05131 1159.39 232.359 938.759 232.359C718.132 232.359 781 -12.4215 460 1.57843Z" stroke="#FFDDE8"/>
</svg>
